<?xml version="1.0" encoding="UTF-8"?>
<svg xmlns="http://www.w3.org/2000/svg" xmlns:xlink="http://www.w3.org/1999/xlink" width="660" height="244" viewBox="0 0 660 244">
<defs>
<g>
<g id="glyph-0-0">
<path d="M 6.8125 -3.828125 C 6.8125 -4.742188 6.617188 -5.460938 6.234375 -5.984375 C 5.859375 -6.515625 5.335938 -6.78125 4.671875 -6.78125 C 4.003906 -6.78125 3.476562 -6.515625 3.09375 -5.984375 C 2.71875 -5.460938 2.53125 -4.742188 2.53125 -3.828125 C 2.53125 -2.898438 2.71875 -2.171875 3.09375 -1.640625 C 3.476562 -1.117188 4.003906 -0.859375 4.671875 -0.859375 C 5.335938 -0.859375 5.859375 -1.117188 6.234375 -1.640625 C 6.617188 -2.171875 6.8125 -2.898438 6.8125 -3.828125 Z M 2.53125 -6.5 C 2.800781 -6.945312 3.132812 -7.28125 3.53125 -7.5 C 3.9375 -7.726562 4.421875 -7.84375 4.984375 -7.84375 C 5.910156 -7.84375 6.664062 -7.472656 7.25 -6.734375 C 7.832031 -5.992188 8.125 -5.023438 8.125 -3.828125 C 8.125 -2.617188 7.832031 -1.644531 7.25 -0.90625 C 6.664062 -0.164062 5.910156 0.203125 4.984375 0.203125 C 4.421875 0.203125 3.9375 0.09375 3.53125 -0.125 C 3.132812 -0.351562 2.800781 -0.695312 2.53125 -1.15625 L 2.53125 0 L 1.265625 0 L 1.265625 -10.640625 L 2.53125 -10.640625 Z M 2.53125 -6.5 "/>
</g>
<g id="glyph-0-1">
<path d="M 1.1875 -3.015625 L 1.1875 -7.65625 L 2.453125 -7.65625 L 2.453125 -3.0625 C 2.453125 -2.34375 2.59375 -1.800781 2.875 -1.4375 C 3.15625 -1.070312 3.578125 -0.890625 4.140625 -0.890625 C 4.816406 -0.890625 5.351562 -1.101562 5.75 -1.53125 C 6.144531 -1.96875 6.34375 -2.5625 6.34375 -3.3125 L 6.34375 -7.65625 L 7.609375 -7.65625 L 7.609375 0 L 6.34375 0 L 6.34375 -1.171875 C 6.039062 -0.710938 5.6875 -0.367188 5.28125 -0.140625 C 4.875 0.0859375 4.40625 0.203125 3.875 0.203125 C 3 0.203125 2.332031 -0.0664062 1.875 -0.609375 C 1.414062 -1.160156 1.1875 -1.960938 1.1875 -3.015625 Z M 4.359375 -7.84375 Z M 4.359375 -7.84375 "/>
</g>
<g id="glyph-0-2">
<path d="M 5.75 -6.484375 C 5.613281 -6.566406 5.460938 -6.625 5.296875 -6.65625 C 5.128906 -6.695312 4.945312 -6.71875 4.75 -6.71875 C 4.03125 -6.71875 3.476562 -6.484375 3.09375 -6.015625 C 2.71875 -5.554688 2.53125 -4.894531 2.53125 -4.03125 L 2.53125 0 L 1.265625 0 L 1.265625 -7.65625 L 2.53125 -7.65625 L 2.53125 -6.46875 C 2.800781 -6.9375 3.144531 -7.28125 3.5625 -7.5 C 3.988281 -7.726562 4.503906 -7.84375 5.109375 -7.84375 C 5.203125 -7.84375 5.300781 -7.835938 5.40625 -7.828125 C 5.507812 -7.816406 5.625 -7.796875 5.75 -7.765625 Z M 5.75 -6.484375 "/>
</g>
<g id="glyph-0-3">
<path d="M 6.359375 -3.921875 C 6.359375 -4.828125 6.171875 -5.53125 5.796875 -6.03125 C 5.421875 -6.53125 4.894531 -6.78125 4.21875 -6.78125 C 3.539062 -6.78125 3.015625 -6.53125 2.640625 -6.03125 C 2.265625 -5.53125 2.078125 -4.828125 2.078125 -3.921875 C 2.078125 -3.015625 2.265625 -2.304688 2.640625 -1.796875 C 3.015625 -1.296875 3.539062 -1.046875 4.21875 -1.046875 C 4.894531 -1.046875 5.421875 -1.296875 5.796875 -1.796875 C 6.171875 -2.304688 6.359375 -3.015625 6.359375 -3.921875 Z M 7.609375 -0.953125 C 7.609375 0.347656 7.316406 1.316406 6.734375 1.953125 C 6.160156 2.585938 5.28125 2.90625 4.09375 2.90625 C 3.644531 2.90625 3.222656 2.875 2.828125 2.8125 C 2.441406 2.75 2.066406 2.648438 1.703125 2.515625 L 1.703125 1.28125 C 2.066406 1.488281 2.425781 1.640625 2.78125 1.734375 C 3.144531 1.828125 3.515625 1.875 3.890625 1.875 C 4.710938 1.875 5.328125 1.65625 5.734375 1.21875 C 6.148438 0.789062 6.359375 0.144531 6.359375 -0.71875 L 6.359375 -1.34375 C 6.097656 -0.894531 5.765625 -0.554688 5.359375 -0.328125 C 4.953125 -0.109375 4.46875 0 3.90625 0 C 2.96875 0 2.207031 -0.351562 1.625 -1.0625 C 1.050781 -1.78125 0.765625 -2.734375 0.765625 -3.921875 C 0.765625 -5.097656 1.050781 -6.046875 1.625 -6.765625 C 2.207031 -7.484375 2.96875 -7.84375 3.90625 -7.84375 C 4.46875 -7.84375 4.953125 -7.726562 5.359375 -7.5 C 5.765625 -7.28125 6.097656 -6.945312 6.359375 -6.5 L 6.359375 -7.65625 L 7.609375 -7.65625 Z M 7.609375 -0.953125 "/>
</g>
<g id="glyph-0-4">
<path d="M 7.875 -4.140625 L 7.875 -3.53125 L 2.078125 -3.53125 C 2.140625 -2.664062 2.398438 -2.003906 2.859375 -1.546875 C 3.328125 -1.097656 3.976562 -0.875 4.8125 -0.875 C 5.300781 -0.875 5.769531 -0.929688 6.21875 -1.046875 C 6.675781 -1.160156 7.128906 -1.335938 7.578125 -1.578125 L 7.578125 -0.390625 C 7.117188 -0.203125 6.648438 -0.0546875 6.171875 0.046875 C 5.703125 0.148438 5.226562 0.203125 4.75 0.203125 C 3.519531 0.203125 2.546875 -0.148438 1.828125 -0.859375 C 1.117188 -1.578125 0.765625 -2.539062 0.765625 -3.75 C 0.765625 -5.007812 1.101562 -6.003906 1.78125 -6.734375 C 2.457031 -7.472656 3.375 -7.84375 4.53125 -7.84375 C 5.5625 -7.84375 6.375 -7.507812 6.96875 -6.84375 C 7.570312 -6.1875 7.875 -5.285156 7.875 -4.140625 Z M 6.609375 -4.515625 C 6.597656 -5.203125 6.40625 -5.75 6.03125 -6.15625 C 5.65625 -6.570312 5.160156 -6.78125 4.546875 -6.78125 C 3.835938 -6.78125 3.269531 -6.578125 2.84375 -6.171875 C 2.425781 -5.773438 2.1875 -5.21875 2.125 -4.5 Z M 6.609375 -4.515625 "/>
</g>
<g id="glyph-0-5">
<path d="M 6.203125 -7.4375 L 6.203125 -6.234375 C 5.847656 -6.421875 5.476562 -6.554688 5.09375 -6.640625 C 4.707031 -6.734375 4.3125 -6.78125 3.90625 -6.78125 C 3.28125 -6.78125 2.8125 -6.6875 2.5 -6.5 C 2.1875 -6.3125 2.03125 -6.023438 2.03125 -5.640625 C 2.03125 -5.347656 2.140625 -5.117188 2.359375 -4.953125 C 2.585938 -4.785156 3.039062 -4.628906 3.71875 -4.484375 L 4.140625 -4.375 C 5.035156 -4.1875 5.671875 -3.914062 6.046875 -3.5625 C 6.421875 -3.21875 6.609375 -2.734375 6.609375 -2.109375 C 6.609375 -1.398438 6.328125 -0.835938 5.765625 -0.421875 C 5.203125 -0.00390625 4.429688 0.203125 3.453125 0.203125 C 3.035156 0.203125 2.601562 0.160156 2.15625 0.078125 C 1.71875 -0.00390625 1.253906 -0.125 0.765625 -0.28125 L 0.765625 -1.578125 C 1.222656 -1.335938 1.675781 -1.15625 2.125 -1.03125 C 2.582031 -0.914062 3.03125 -0.859375 3.46875 -0.859375 C 4.0625 -0.859375 4.515625 -0.957031 4.828125 -1.15625 C 5.148438 -1.363281 5.3125 -1.648438 5.3125 -2.015625 C 5.3125 -2.359375 5.195312 -2.617188 4.96875 -2.796875 C 4.738281 -2.984375 4.234375 -3.160156 3.453125 -3.328125 L 3.015625 -3.4375 C 2.242188 -3.59375 1.679688 -3.84375 1.328125 -4.1875 C 0.984375 -4.53125 0.8125 -4.992188 0.8125 -5.578125 C 0.8125 -6.304688 1.066406 -6.863281 1.578125 -7.25 C 2.085938 -7.644531 2.8125 -7.84375 3.75 -7.84375 C 4.21875 -7.84375 4.65625 -7.804688 5.0625 -7.734375 C 5.476562 -7.671875 5.859375 -7.570312 6.203125 -7.4375 Z M 6.203125 -7.4375 "/>
</g>
<g id="glyph-0-6">
<path d="M 4.34375 -10.625 C 3.726562 -9.570312 3.269531 -8.53125 2.96875 -7.5 C 2.675781 -6.476562 2.53125 -5.441406 2.53125 -4.390625 C 2.53125 -3.335938 2.679688 -2.296875 2.984375 -1.265625 C 3.285156 -0.234375 3.738281 0.800781 4.34375 1.84375 L 3.25 1.84375 C 2.5625 0.769531 2.046875 -0.28125 1.703125 -1.3125 C 1.367188 -2.34375 1.203125 -3.367188 1.203125 -4.390625 C 1.203125 -5.410156 1.367188 -6.4375 1.703125 -7.46875 C 2.046875 -8.5 2.5625 -9.550781 3.25 -10.625 Z M 4.34375 -10.625 "/>
</g>
<g id="glyph-0-7">
<path d="M 1.640625 -1.734375 L 3.078125 -1.734375 L 3.078125 -0.5625 L 1.96875 1.625 L 1.078125 1.625 L 1.640625 -0.5625 Z M 1.640625 -1.734375 "/>
</g>
<g id="glyph-0-8">
<path d="M 7.6875 -4.625 L 7.6875 2.90625 L 6.421875 2.90625 L 6.421875 -4.578125 C 6.421875 -5.304688 6.28125 -5.847656 6 -6.203125 C 5.71875 -6.566406 5.296875 -6.75 4.734375 -6.75 C 4.054688 -6.75 3.519531 -6.53125 3.125 -6.09375 C 2.726562 -5.664062 2.53125 -5.078125 2.53125 -4.328125 L 2.53125 0 L 1.265625 0 L 1.265625 -7.65625 L 2.53125 -7.65625 L 2.53125 -6.46875 C 2.832031 -6.925781 3.1875 -7.269531 3.59375 -7.5 C 4.007812 -7.726562 4.484375 -7.84375 5.015625 -7.84375 C 5.890625 -7.84375 6.550781 -7.570312 7 -7.03125 C 7.457031 -6.476562 7.6875 -5.675781 7.6875 -4.625 Z M 7.6875 -4.625 "/>
</g>
<g id="glyph-0-9">
<path d="M 1.125 -10.625 L 2.21875 -10.625 C 2.894531 -9.550781 3.40625 -8.5 3.75 -7.46875 C 4.09375 -6.4375 4.265625 -5.410156 4.265625 -4.390625 C 4.265625 -3.367188 4.09375 -2.34375 3.75 -1.3125 C 3.40625 -0.28125 2.894531 0.769531 2.21875 1.84375 L 1.125 1.84375 C 1.726562 0.800781 2.175781 -0.234375 2.46875 -1.265625 C 2.769531 -2.296875 2.921875 -3.335938 2.921875 -4.390625 C 2.921875 -5.441406 2.769531 -6.476562 2.46875 -7.5 C 2.175781 -8.53125 1.726562 -9.570312 1.125 -10.625 Z M 1.125 -10.625 "/>
</g>
<g id="glyph-1-0">
<path d="M 1.265625 -10.640625 L 2.53125 -10.640625 L 2.53125 -4.359375 L 6.296875 -7.65625 L 7.890625 -7.65625 L 3.828125 -4.078125 L 8.0625 0 L 6.421875 0 L 2.53125 -3.734375 L 2.53125 0 L 1.265625 0 Z M 1.265625 -10.640625 "/>
</g>
<g id="glyph-2-0">
<path d="M 3.71875 -4.46875 L 3.71875 -3.75 C 3.507812 -3.851562 3.289062 -3.929688 3.0625 -3.984375 C 2.832031 -4.046875 2.59375 -4.078125 2.34375 -4.078125 C 1.96875 -4.078125 1.6875 -4.019531 1.5 -3.90625 C 1.3125 -3.789062 1.21875 -3.617188 1.21875 -3.390625 C 1.21875 -3.210938 1.285156 -3.070312 1.421875 -2.96875 C 1.554688 -2.875 1.828125 -2.78125 2.234375 -2.6875 L 2.484375 -2.625 C 3.023438 -2.507812 3.40625 -2.347656 3.625 -2.140625 C 3.851562 -1.929688 3.96875 -1.640625 3.96875 -1.265625 C 3.96875 -0.835938 3.796875 -0.5 3.453125 -0.25 C 3.117188 0 2.65625 0.125 2.0625 0.125 C 1.820312 0.125 1.566406 0.0976562 1.296875 0.046875 C 1.035156 -0.00390625 0.753906 -0.078125 0.453125 -0.171875 L 0.453125 -0.953125 C 0.734375 -0.804688 1.007812 -0.695312 1.28125 -0.625 C 1.550781 -0.550781 1.816406 -0.515625 2.078125 -0.515625 C 2.441406 -0.515625 2.71875 -0.570312 2.90625 -0.6875 C 3.09375 -0.8125 3.1875 -0.984375 3.1875 -1.203125 C 3.1875 -1.410156 3.117188 -1.566406 2.984375 -1.671875 C 2.847656 -1.785156 2.546875 -1.894531 2.078125 -2 L 1.8125 -2.0625 C 1.34375 -2.15625 1.003906 -2.300781 0.796875 -2.5 C 0.585938 -2.707031 0.484375 -2.992188 0.484375 -3.359375 C 0.484375 -3.785156 0.632812 -4.113281 0.9375 -4.34375 C 1.25 -4.582031 1.6875 -4.703125 2.25 -4.703125 C 2.53125 -4.703125 2.789062 -4.679688 3.03125 -4.640625 C 3.28125 -4.597656 3.507812 -4.539062 3.71875 -4.46875 Z M 3.71875 -4.46875 "/>
</g>
<g id="glyph-2-1">
<path d="M 1.515625 -0.6875 L 1.515625 1.75 L 0.765625 1.75 L 0.765625 -4.59375 L 1.515625 -4.59375 L 1.515625 -3.90625 C 1.679688 -4.175781 1.882812 -4.375 2.125 -4.5 C 2.363281 -4.632812 2.65625 -4.703125 3 -4.703125 C 3.550781 -4.703125 4 -4.476562 4.34375 -4.03125 C 4.695312 -3.59375 4.875 -3.015625 4.875 -2.296875 C 4.875 -1.566406 4.695312 -0.976562 4.34375 -0.53125 C 4 -0.09375 3.550781 0.125 3 0.125 C 2.65625 0.125 2.363281 0.0546875 2.125 -0.078125 C 1.882812 -0.210938 1.679688 -0.414062 1.515625 -0.6875 Z M 4.09375 -2.296875 C 4.09375 -2.847656 3.976562 -3.28125 3.75 -3.59375 C 3.519531 -3.914062 3.207031 -4.078125 2.8125 -4.078125 C 2.40625 -4.078125 2.085938 -3.914062 1.859375 -3.59375 C 1.628906 -3.28125 1.515625 -2.847656 1.515625 -2.296875 C 1.515625 -1.742188 1.628906 -1.304688 1.859375 -0.984375 C 2.085938 -0.671875 2.40625 -0.515625 2.8125 -0.515625 C 3.207031 -0.515625 3.519531 -0.671875 3.75 -0.984375 C 3.976562 -1.304688 4.09375 -1.742188 4.09375 -2.296875 Z M 4.09375 -2.296875 "/>
</g>
<g id="glyph-3-0">
<path d="M 1.1875 -9.875 L 2.359375 -9.875 L 2.359375 -4.046875 L 5.84375 -7.109375 L 7.328125 -7.109375 L 3.5625 -3.78125 L 7.484375 0 L 5.96875 0 L 2.359375 -3.46875 L 2.359375 0 L 1.1875 0 Z M 1.1875 -9.875 "/>
</g>
<g id="glyph-4-0">
<path d="M 3.453125 -4.140625 L 3.453125 -3.46875 C 3.253906 -3.570312 3.046875 -3.648438 2.828125 -3.703125 C 2.617188 -3.753906 2.398438 -3.78125 2.171875 -3.78125 C 1.828125 -3.78125 1.566406 -3.722656 1.390625 -3.609375 C 1.210938 -3.503906 1.125 -3.347656 1.125 -3.140625 C 1.125 -2.972656 1.1875 -2.84375 1.3125 -2.75 C 1.4375 -2.664062 1.6875 -2.582031 2.0625 -2.5 L 2.3125 -2.4375 C 2.800781 -2.332031 3.148438 -2.179688 3.359375 -1.984375 C 3.578125 -1.796875 3.6875 -1.523438 3.6875 -1.171875 C 3.6875 -0.773438 3.523438 -0.460938 3.203125 -0.234375 C 2.890625 -0.00390625 2.460938 0.109375 1.921875 0.109375 C 1.691406 0.109375 1.453125 0.0859375 1.203125 0.046875 C 0.953125 0.00390625 0.691406 -0.0625 0.421875 -0.15625 L 0.421875 -0.875 C 0.679688 -0.738281 0.9375 -0.632812 1.1875 -0.5625 C 1.4375 -0.5 1.6875 -0.46875 1.9375 -0.46875 C 2.257812 -0.46875 2.507812 -0.523438 2.6875 -0.640625 C 2.875 -0.753906 2.96875 -0.914062 2.96875 -1.125 C 2.96875 -1.3125 2.898438 -1.457031 2.765625 -1.5625 C 2.640625 -1.664062 2.359375 -1.765625 1.921875 -1.859375 L 1.6875 -1.90625 C 1.25 -2 0.929688 -2.140625 0.734375 -2.328125 C 0.546875 -2.515625 0.453125 -2.773438 0.453125 -3.109375 C 0.453125 -3.515625 0.59375 -3.820312 0.875 -4.03125 C 1.164062 -4.25 1.570312 -4.359375 2.09375 -4.359375 C 2.351562 -4.359375 2.59375 -4.335938 2.8125 -4.296875 C 3.039062 -4.265625 3.253906 -4.210938 3.453125 -4.140625 Z M 3.453125 -4.140625 "/>
</g>
<g id="glyph-4-1">
<path d="M 1.40625 -0.640625 L 1.40625 1.625 L 0.703125 1.625 L 0.703125 -4.265625 L 1.40625 -4.265625 L 1.40625 -3.609375 C 1.5625 -3.867188 1.75 -4.054688 1.96875 -4.171875 C 2.195312 -4.296875 2.46875 -4.359375 2.78125 -4.359375 C 3.289062 -4.359375 3.707031 -4.15625 4.03125 -3.75 C 4.351562 -3.34375 4.515625 -2.800781 4.515625 -2.125 C 4.515625 -1.457031 4.351562 -0.914062 4.03125 -0.5 C 3.707031 -0.09375 3.289062 0.109375 2.78125 0.109375 C 2.46875 0.109375 2.195312 0.046875 1.96875 -0.078125 C 1.75 -0.203125 1.5625 -0.390625 1.40625 -0.640625 Z M 3.796875 -2.125 C 3.796875 -2.644531 3.6875 -3.050781 3.46875 -3.34375 C 3.257812 -3.632812 2.972656 -3.78125 2.609375 -3.78125 C 2.234375 -3.78125 1.9375 -3.632812 1.71875 -3.34375 C 1.507812 -3.050781 1.40625 -2.644531 1.40625 -2.125 C 1.40625 -1.613281 1.507812 -1.207031 1.71875 -0.90625 C 1.9375 -0.613281 2.234375 -0.46875 2.609375 -0.46875 C 2.972656 -0.46875 3.257812 -0.613281 3.46875 -0.90625 C 3.6875 -1.207031 3.796875 -1.613281 3.796875 -2.125 Z M 3.796875 -2.125 "/>
</g>
<g id="glyph-5-0">
<path d="M 7.140625 -4.296875 L 7.140625 2.703125 L 5.96875 2.703125 L 5.96875 -4.25 C 5.96875 -4.925781 5.835938 -5.429688 5.578125 -5.765625 C 5.316406 -6.097656 4.921875 -6.265625 4.390625 -6.265625 C 3.765625 -6.265625 3.269531 -6.0625 2.90625 -5.65625 C 2.539062 -5.257812 2.359375 -4.710938 2.359375 -4.015625 L 2.359375 0 L 1.1875 0 L 1.1875 -7.109375 L 2.359375 -7.109375 L 2.359375 -6 C 2.640625 -6.425781 2.96875 -6.75 3.34375 -6.96875 C 3.71875 -7.175781 4.15625 -7.28125 4.65625 -7.28125 C 5.46875 -7.28125 6.082031 -7.03125 6.5 -6.53125 C 6.925781 -6.019531 7.140625 -5.273438 7.140625 -4.296875 Z M 7.140625 -4.296875 "/>
</g>
<g id="glyph-6-0">
<path d="M 1.171875 -8.75 L 2.359375 -8.75 L 2.359375 -0.609375 C 2.359375 0.441406 2.15625 1.207031 1.75 1.6875 C 1.351562 2.164062 0.710938 2.40625 -0.171875 2.40625 L -0.625 2.40625 L -0.625 1.40625 L -0.25 1.40625 C 0.269531 1.40625 0.632812 1.257812 0.84375 0.96875 C 1.0625 0.675781 1.171875 0.148438 1.171875 -0.609375 Z M 1.171875 -8.75 "/>
</g>
<g id="glyph-6-1">
<path d="M 2.203125 -8.421875 L 2.203125 -6.5625 L 4.421875 -6.5625 L 4.421875 -5.71875 L 2.203125 -5.71875 L 2.203125 -2.15625 C 2.203125 -1.625 2.273438 -1.28125 2.421875 -1.125 C 2.566406 -0.976562 2.863281 -0.90625 3.3125 -0.90625 L 4.421875 -0.90625 L 4.421875 0 L 3.3125 0 C 2.476562 0 1.898438 -0.15625 1.578125 -0.46875 C 1.265625 -0.78125 1.109375 -1.34375 1.109375 -2.15625 L 1.109375 -5.71875 L 0.328125 -5.71875 L 0.328125 -6.5625 L 1.109375 -6.5625 L 1.109375 -8.421875 Z M 2.203125 -8.421875 "/>
</g>
<g id="glyph-6-2">
<path d="M 1.09375 -9.125 L 2.171875 -9.125 L 2.171875 -3.734375 L 5.390625 -6.5625 L 6.765625 -6.5625 L 3.28125 -3.5 L 6.921875 0 L 5.515625 0 L 2.171875 -3.203125 L 2.171875 0 L 1.09375 0 Z M 1.09375 -9.125 "/>
</g>
<g id="glyph-6-3">
<path d="M 6.75 -3.546875 L 6.75 -3.03125 L 1.78125 -3.03125 C 1.832031 -2.28125 2.054688 -1.710938 2.453125 -1.328125 C 2.859375 -0.941406 3.414062 -0.75 4.125 -0.75 C 4.539062 -0.75 4.941406 -0.796875 5.328125 -0.890625 C 5.722656 -0.992188 6.113281 -1.148438 6.5 -1.359375 L 6.5 -0.328125 C 6.101562 -0.171875 5.703125 -0.0507812 5.296875 0.03125 C 4.890625 0.125 4.476562 0.171875 4.0625 0.171875 C 3.019531 0.171875 2.191406 -0.128906 1.578125 -0.734375 C 0.960938 -1.347656 0.65625 -2.175781 0.65625 -3.21875 C 0.65625 -4.289062 0.945312 -5.140625 1.53125 -5.765625 C 2.113281 -6.398438 2.894531 -6.71875 3.875 -6.71875 C 4.757812 -6.71875 5.457031 -6.429688 5.96875 -5.859375 C 6.488281 -5.296875 6.75 -4.523438 6.75 -3.546875 Z M 5.671875 -3.875 C 5.660156 -4.457031 5.492188 -4.925781 5.171875 -5.28125 C 4.847656 -5.632812 4.421875 -5.8125 3.890625 -5.8125 C 3.285156 -5.8125 2.800781 -5.640625 2.4375 -5.296875 C 2.082031 -4.953125 1.878906 -4.472656 1.828125 -3.859375 Z M 5.671875 -3.875 "/>
</g>
<g id="glyph-7-0">
<path d="M 3.71875 -9.109375 C 3.195312 -8.210938 2.804688 -7.320312 2.546875 -6.4375 C 2.296875 -5.5625 2.171875 -4.671875 2.171875 -3.765625 C 2.171875 -2.867188 2.296875 -1.976562 2.546875 -1.09375 C 2.804688 -0.207031 3.195312 0.679688 3.71875 1.578125 L 2.78125 1.578125 C 2.195312 0.660156 1.757812 -0.238281 1.46875 -1.125 C 1.175781 -2.007812 1.03125 -2.890625 1.03125 -3.765625 C 1.03125 -4.640625 1.175781 -5.515625 1.46875 -6.390625 C 1.757812 -7.273438 2.195312 -8.179688 2.78125 -9.109375 Z M 3.71875 -9.109375 "/>
</g>
<g id="glyph-7-1">
<path d="M 0.96875 -9.109375 L 1.90625 -9.109375 C 2.488281 -8.179688 2.925781 -7.273438 3.21875 -6.390625 C 3.507812 -5.515625 3.65625 -4.640625 3.65625 -3.765625 C 3.65625 -2.890625 3.507812 -2.007812 3.21875 -1.125 C 2.925781 -0.238281 2.488281 0.660156 1.90625 1.578125 L 0.96875 1.578125 C 1.476562 0.679688 1.863281 -0.207031 2.125 -1.09375 C 2.382812 -1.976562 2.515625 -2.867188 2.515625 -3.765625 C 2.515625 -4.671875 2.382812 -5.5625 2.125 -6.4375 C 1.863281 -7.320312 1.476562 -8.210938 0.96875 -9.109375 Z M 0.96875 -9.109375 "/>
</g>
<g id="glyph-7-2">
<path d="M 1.265625 -5.453125 L 8.78125 -5.453125 L 8.78125 -4.46875 L 1.265625 -4.46875 Z M 1.265625 -3.0625 L 8.78125 -3.0625 L 8.78125 -2.0625 L 1.265625 -2.0625 Z M 1.265625 -3.0625 "/>
</g>
<g id="glyph-7-3">
<path d="M 1.484375 -1 L 3.421875 -1 L 3.421875 -7.671875 L 1.3125 -7.25 L 1.3125 -8.328125 L 3.40625 -8.75 L 4.59375 -8.75 L 4.59375 -1 L 6.53125 -1 L 6.53125 0 L 1.484375 0 Z M 1.484375 -1 "/>
</g>
<g id="glyph-7-4">
<path d="M 3.046875 -8.75 L 4.046875 -8.75 L 1 1.109375 L 0 1.109375 Z M 3.046875 -8.75 "/>
</g>
<g id="glyph-7-5">
<path d="M 5.515625 -7.53125 L 5.515625 -4.265625 L 8.78125 -4.265625 L 8.78125 -3.265625 L 5.515625 -3.265625 L 5.515625 0 L 4.53125 0 L 4.53125 -3.265625 L 1.265625 -3.265625 L 1.265625 -4.265625 L 4.53125 -4.265625 L 4.53125 -7.53125 Z M 5.515625 -7.53125 "/>
</g>
<g id="glyph-7-6">
<path d="M 6.59375 -3.96875 L 6.59375 2.5 L 5.515625 2.5 L 5.515625 -3.921875 C 5.515625 -4.546875 5.390625 -5.007812 5.140625 -5.3125 C 4.898438 -5.625 4.539062 -5.78125 4.0625 -5.78125 C 3.476562 -5.78125 3.015625 -5.59375 2.671875 -5.21875 C 2.335938 -4.851562 2.171875 -4.347656 2.171875 -3.703125 L 2.171875 0 L 1.09375 0 L 1.09375 -6.5625 L 2.171875 -6.5625 L 2.171875 -5.546875 C 2.429688 -5.941406 2.734375 -6.234375 3.078125 -6.421875 C 3.429688 -6.617188 3.835938 -6.71875 4.296875 -6.71875 C 5.046875 -6.71875 5.613281 -6.488281 6 -6.03125 C 6.394531 -5.5625 6.59375 -4.875 6.59375 -3.96875 Z M 6.59375 -3.96875 "/>
</g>
<g id="glyph-7-7">
<path d="M 1.265625 -4.265625 L 8.78125 -4.265625 L 8.78125 -3.265625 L 1.265625 -3.265625 Z M 1.265625 -4.265625 "/>
</g>
<g id="glyph-8-0">
<path d="M 3.1875 -3.828125 L 3.1875 -3.21875 C 3.007812 -3.3125 2.820312 -3.378906 2.625 -3.421875 C 2.425781 -3.472656 2.222656 -3.5 2.015625 -3.5 C 1.691406 -3.5 1.445312 -3.445312 1.28125 -3.34375 C 1.125 -3.25 1.046875 -3.101562 1.046875 -2.90625 C 1.046875 -2.75 1.101562 -2.628906 1.21875 -2.546875 C 1.332031 -2.460938 1.5625 -2.378906 1.90625 -2.296875 L 2.125 -2.25 C 2.59375 -2.15625 2.921875 -2.015625 3.109375 -1.828125 C 3.304688 -1.648438 3.40625 -1.40625 3.40625 -1.09375 C 3.40625 -0.71875 3.257812 -0.421875 2.96875 -0.203125 C 2.675781 0.00390625 2.273438 0.109375 1.765625 0.109375 C 1.554688 0.109375 1.335938 0.0859375 1.109375 0.046875 C 0.878906 0.00390625 0.640625 -0.0546875 0.390625 -0.140625 L 0.390625 -0.8125 C 0.628906 -0.6875 0.863281 -0.59375 1.09375 -0.53125 C 1.332031 -0.46875 1.5625 -0.4375 1.78125 -0.4375 C 2.09375 -0.4375 2.328125 -0.488281 2.484375 -0.59375 C 2.648438 -0.695312 2.734375 -0.84375 2.734375 -1.03125 C 2.734375 -1.207031 2.671875 -1.34375 2.546875 -1.4375 C 2.429688 -1.53125 2.175781 -1.625 1.78125 -1.71875 L 1.546875 -1.765625 C 1.148438 -1.847656 0.863281 -1.976562 0.6875 -2.15625 C 0.507812 -2.332031 0.421875 -2.570312 0.421875 -2.875 C 0.421875 -3.238281 0.550781 -3.519531 0.8125 -3.71875 C 1.070312 -3.925781 1.445312 -4.03125 1.9375 -4.03125 C 2.175781 -4.03125 2.398438 -4.007812 2.609375 -3.96875 C 2.816406 -3.9375 3.007812 -3.890625 3.1875 -3.828125 Z M 3.1875 -3.828125 "/>
</g>
<g id="glyph-8-1">
<path d="M 1.3125 -5.0625 L 1.3125 -3.9375 L 2.65625 -3.9375 L 2.65625 -3.4375 L 1.3125 -3.4375 L 1.3125 -1.296875 C 1.3125 -0.972656 1.351562 -0.765625 1.4375 -0.671875 C 1.53125 -0.585938 1.710938 -0.546875 1.984375 -0.546875 L 2.65625 -0.546875 L 2.65625 0 L 1.984375 0 C 1.484375 0 1.140625 -0.09375 0.953125 -0.28125 C 0.765625 -0.46875 0.671875 -0.804688 0.671875 -1.296875 L 0.671875 -3.4375 L 0.1875 -3.4375 L 0.1875 -3.9375 L 0.671875 -3.9375 L 0.671875 -5.0625 Z M 1.3125 -5.0625 "/>
</g>
<g id="glyph-8-2">
<path d="M 0.65625 -5.46875 L 1.3125 -5.46875 L 1.3125 -2.234375 L 3.234375 -3.9375 L 4.0625 -3.9375 L 1.96875 -2.09375 L 4.15625 0 L 3.3125 0 L 1.3125 -1.921875 L 1.3125 0 L 0.65625 0 Z M 0.65625 -5.46875 "/>
</g>
<g id="glyph-8-3">
<path d="M 1.3125 -0.59375 L 1.3125 1.5 L 0.65625 1.5 L 0.65625 -3.9375 L 1.3125 -3.9375 L 1.3125 -3.34375 C 1.445312 -3.570312 1.613281 -3.742188 1.8125 -3.859375 C 2.019531 -3.972656 2.269531 -4.03125 2.5625 -4.03125 C 3.039062 -4.03125 3.425781 -3.835938 3.71875 -3.453125 C 4.019531 -3.078125 4.171875 -2.582031 4.171875 -1.96875 C 4.171875 -1.34375 4.019531 -0.835938 3.71875 -0.453125 C 3.425781 -0.078125 3.039062 0.109375 2.5625 0.109375 C 2.269531 0.109375 2.019531 0.0507812 1.8125 -0.0625 C 1.613281 -0.175781 1.445312 -0.351562 1.3125 -0.59375 Z M 3.5 -1.96875 C 3.5 -2.445312 3.398438 -2.820312 3.203125 -3.09375 C 3.015625 -3.363281 2.75 -3.5 2.40625 -3.5 C 2.0625 -3.5 1.789062 -3.363281 1.59375 -3.09375 C 1.40625 -2.820312 1.3125 -2.445312 1.3125 -1.96875 C 1.3125 -1.488281 1.40625 -1.113281 1.59375 -0.84375 C 1.789062 -0.570312 2.0625 -0.4375 2.40625 -0.4375 C 2.75 -0.4375 3.015625 -0.570312 3.203125 -0.84375 C 3.398438 -1.113281 3.5 -1.488281 3.5 -1.96875 Z M 3.5 -1.96875 "/>
</g>
<g id="glyph-9-0">
<path d="M 0.765625 -2.5625 L 5.265625 -2.5625 L 5.265625 -1.953125 L 0.765625 -1.953125 Z M 0.765625 -2.5625 "/>
</g>
<g id="glyph-9-1">
<path d="M 1.828125 -5.25 L 2.421875 -5.25 L 0.59375 0.671875 L 0 0.671875 Z M 1.828125 -5.25 "/>
</g>
<g id="glyph-9-2">
<path d="M 3.953125 -2.375 L 3.953125 1.5 L 3.3125 1.5 L 3.3125 -2.359375 C 3.3125 -2.734375 3.238281 -3.007812 3.09375 -3.1875 C 2.945312 -3.375 2.726562 -3.46875 2.4375 -3.46875 C 2.082031 -3.46875 1.804688 -3.351562 1.609375 -3.125 C 1.410156 -2.90625 1.3125 -2.601562 1.3125 -2.21875 L 1.3125 0 L 0.65625 0 L 0.65625 -3.9375 L 1.3125 -3.9375 L 1.3125 -3.328125 C 1.457031 -3.566406 1.632812 -3.742188 1.84375 -3.859375 C 2.0625 -3.972656 2.304688 -4.03125 2.578125 -4.03125 C 3.023438 -4.03125 3.367188 -3.890625 3.609375 -3.609375 C 3.835938 -3.328125 3.953125 -2.914062 3.953125 -2.375 Z M 3.953125 -2.375 "/>
</g>
<g id="glyph-10-0">
<path d="M 0.78125 -0.359375 L 0.78125 0.890625 L 0.390625 0.890625 L 0.390625 -2.359375 L 0.78125 -2.359375 L 0.78125 -2 C 0.863281 -2.144531 0.96875 -2.25 1.09375 -2.3125 C 1.21875 -2.382812 1.363281 -2.421875 1.53125 -2.421875 C 1.820312 -2.421875 2.054688 -2.304688 2.234375 -2.078125 C 2.410156 -1.847656 2.5 -1.546875 2.5 -1.171875 C 2.5 -0.804688 2.410156 -0.507812 2.234375 -0.28125 C 2.054688 -0.0507812 1.820312 0.0625 1.53125 0.0625 C 1.363281 0.0625 1.21875 0.03125 1.09375 -0.03125 C 0.96875 -0.101562 0.863281 -0.210938 0.78125 -0.359375 Z M 2.09375 -1.171875 C 2.09375 -1.460938 2.035156 -1.6875 1.921875 -1.84375 C 1.804688 -2.007812 1.644531 -2.09375 1.4375 -2.09375 C 1.238281 -2.09375 1.078125 -2.007812 0.953125 -1.84375 C 0.835938 -1.6875 0.78125 -1.460938 0.78125 -1.171875 C 0.78125 -0.890625 0.835938 -0.664062 0.953125 -0.5 C 1.078125 -0.34375 1.238281 -0.265625 1.4375 -0.265625 C 1.644531 -0.265625 1.804688 -0.34375 1.921875 -0.5 C 2.035156 -0.664062 2.09375 -0.890625 2.09375 -1.171875 Z M 2.09375 -1.171875 "/>
</g>
<g id="glyph-11-0">
<path d="M 3.765625 -6.953125 L 2.28125 -2.953125 L 5.234375 -2.953125 Z M 3.140625 -8.015625 L 4.375 -8.015625 L 7.4375 0 L 6.3125 0 L 5.578125 -2.0625 L 1.953125 -2.0625 L 1.234375 0 L 0.09375 0 Z M 3.140625 -8.015625 "/>
</g>
<g id="glyph-11-1">
</g>
<g id="glyph-11-2">
<path d="M 1.078125 -8.015625 L 2.703125 -8.015625 L 4.75 -2.5625 L 6.796875 -8.015625 L 8.421875 -8.015625 L 8.421875 0 L 7.359375 0 L 7.359375 -7.046875 L 5.296875 -1.546875 L 4.203125 -1.546875 L 2.125 -7.046875 L 2.125 0 L 1.078125 0 Z M 1.078125 -8.015625 "/>
</g>
<g id="glyph-11-3">
<path d="M 3.765625 -3.03125 C 2.972656 -3.03125 2.421875 -2.9375 2.109375 -2.75 C 1.804688 -2.5625 1.65625 -2.25 1.65625 -1.8125 C 1.65625 -1.46875 1.769531 -1.191406 2 -0.984375 C 2.226562 -0.773438 2.539062 -0.671875 2.9375 -0.671875 C 3.488281 -0.671875 3.925781 -0.863281 4.25 -1.25 C 4.582031 -1.644531 4.75 -2.160156 4.75 -2.796875 L 4.75 -3.03125 Z M 5.734375 -3.4375 L 5.734375 0 L 4.75 0 L 4.75 -0.90625 C 4.53125 -0.539062 4.25 -0.269531 3.90625 -0.09375 C 3.570312 0.0703125 3.160156 0.15625 2.671875 0.15625 C 2.054688 0.15625 1.566406 -0.015625 1.203125 -0.359375 C 0.835938 -0.703125 0.65625 -1.164062 0.65625 -1.75 C 0.65625 -2.425781 0.878906 -2.9375 1.328125 -3.28125 C 1.785156 -3.625 2.46875 -3.796875 3.375 -3.796875 L 4.75 -3.796875 L 4.75 -3.890625 C 4.75 -4.347656 4.597656 -4.703125 4.296875 -4.953125 C 4.003906 -5.203125 3.585938 -5.328125 3.046875 -5.328125 C 2.703125 -5.328125 2.363281 -5.285156 2.03125 -5.203125 C 1.707031 -5.117188 1.394531 -4.992188 1.09375 -4.828125 L 1.09375 -5.734375 C 1.457031 -5.878906 1.8125 -5.984375 2.15625 -6.046875 C 2.5 -6.117188 2.828125 -6.15625 3.140625 -6.15625 C 4.015625 -6.15625 4.664062 -5.929688 5.09375 -5.484375 C 5.519531 -5.035156 5.734375 -4.351562 5.734375 -3.4375 Z M 5.734375 -3.4375 "/>
</g>
<g id="glyph-11-4">
<path d="M 6.03125 -6.015625 L 3.859375 -3.09375 L 6.15625 0 L 4.984375 0 L 3.234375 -2.359375 L 1.484375 0 L 0.3125 0 L 2.65625 -3.140625 L 0.515625 -6.015625 L 1.6875 -6.015625 L 3.28125 -3.875 L 4.875 -6.015625 Z M 6.03125 -6.015625 "/>
</g>
<g id="glyph-11-5">
<path d="M 0.46875 -6.015625 L 1.453125 -6.015625 L 2.6875 -1.328125 L 3.921875 -6.015625 L 5.078125 -6.015625 L 6.3125 -1.328125 L 7.546875 -6.015625 L 8.53125 -6.015625 L 6.96875 0 L 5.796875 0 L 4.5 -4.9375 L 3.203125 0 L 2.03125 0 Z M 0.46875 -6.015625 "/>
</g>
<g id="glyph-11-6">
<path d="M 6.1875 -3.25 L 6.1875 -2.765625 L 1.640625 -2.765625 C 1.679688 -2.085938 1.882812 -1.570312 2.25 -1.21875 C 2.613281 -0.863281 3.125 -0.6875 3.78125 -0.6875 C 4.164062 -0.6875 4.535156 -0.734375 4.890625 -0.828125 C 5.242188 -0.921875 5.597656 -1.054688 5.953125 -1.234375 L 5.953125 -0.3125 C 5.597656 -0.15625 5.234375 -0.0390625 4.859375 0.03125 C 4.484375 0.113281 4.109375 0.15625 3.734375 0.15625 C 2.765625 0.15625 2 -0.117188 1.4375 -0.671875 C 0.882812 -1.234375 0.609375 -1.992188 0.609375 -2.953125 C 0.609375 -3.929688 0.875 -4.707031 1.40625 -5.28125 C 1.9375 -5.863281 2.65625 -6.15625 3.5625 -6.15625 C 4.363281 -6.15625 5 -5.894531 5.46875 -5.375 C 5.945312 -4.851562 6.1875 -4.144531 6.1875 -3.25 Z M 5.1875 -3.546875 C 5.1875 -4.085938 5.035156 -4.519531 4.734375 -4.84375 C 4.441406 -5.164062 4.050781 -5.328125 3.5625 -5.328125 C 3.007812 -5.328125 2.566406 -5.171875 2.234375 -4.859375 C 1.910156 -4.546875 1.722656 -4.109375 1.671875 -3.546875 Z M 5.1875 -3.546875 "/>
</g>
<g id="glyph-11-7">
<path d="M 1.03125 -8.359375 L 2.03125 -8.359375 L 2.03125 0 L 1.03125 0 Z M 1.03125 -8.359375 "/>
</g>
<g id="glyph-11-8">
<path d="M 0.9375 -2.375 L 0.9375 -6.015625 L 1.921875 -6.015625 L 1.921875 -2.40625 C 1.921875 -1.84375 2.03125 -1.414062 2.25 -1.125 C 2.476562 -0.84375 2.8125 -0.703125 3.25 -0.703125 C 3.789062 -0.703125 4.210938 -0.867188 4.515625 -1.203125 C 4.828125 -1.546875 4.984375 -2.015625 4.984375 -2.609375 L 4.984375 -6.015625 L 5.96875 -6.015625 L 5.96875 0 L 4.984375 0 L 4.984375 -0.921875 C 4.742188 -0.554688 4.460938 -0.285156 4.140625 -0.109375 C 3.828125 0.0664062 3.460938 0.15625 3.046875 0.15625 C 2.359375 0.15625 1.832031 -0.0546875 1.46875 -0.484375 C 1.113281 -0.921875 0.9375 -1.550781 0.9375 -2.375 Z M 3.421875 -6.15625 Z M 3.421875 -6.15625 "/>
</g>
<g id="glyph-11-9">
<path d="M 6.03125 -3.625 L 6.03125 0 L 5.046875 0 L 5.046875 -3.59375 C 5.046875 -4.164062 4.9375 -4.59375 4.71875 -4.875 C 4.5 -5.15625 4.164062 -5.296875 3.71875 -5.296875 C 3.1875 -5.296875 2.765625 -5.125 2.453125 -4.78125 C 2.148438 -4.445312 2 -3.988281 2 -3.40625 L 2 0 L 1 0 L 1 -6.015625 L 2 -6.015625 L 2 -5.078125 C 2.226562 -5.441406 2.503906 -5.710938 2.828125 -5.890625 C 3.148438 -6.066406 3.519531 -6.15625 3.9375 -6.15625 C 4.625 -6.15625 5.144531 -5.941406 5.5 -5.515625 C 5.851562 -5.085938 6.03125 -4.457031 6.03125 -3.625 Z M 6.03125 -3.625 "/>
</g>
<g id="glyph-11-10">
<path d="M 1.03125 -6.015625 L 2.03125 -6.015625 L 2.03125 0 L 1.03125 0 Z M 1.03125 -8.359375 L 2.03125 -8.359375 L 2.03125 -7.109375 L 1.03125 -7.109375 Z M 1.03125 -8.359375 "/>
</g>
<g id="glyph-11-11">
<path d="M 2.015625 -7.71875 L 2.015625 -6.015625 L 4.046875 -6.015625 L 4.046875 -5.25 L 2.015625 -5.25 L 2.015625 -1.984375 C 2.015625 -1.492188 2.082031 -1.175781 2.21875 -1.03125 C 2.351562 -0.894531 2.625 -0.828125 3.03125 -0.828125 L 4.046875 -0.828125 L 4.046875 0 L 3.03125 0 C 2.269531 0 1.742188 -0.140625 1.453125 -0.421875 C 1.160156 -0.710938 1.015625 -1.234375 1.015625 -1.984375 L 1.015625 -5.25 L 0.296875 -5.25 L 0.296875 -6.015625 L 1.015625 -6.015625 L 1.015625 -7.71875 Z M 2.015625 -7.71875 "/>
</g>
<g id="glyph-11-12">
<path d="M 4.875 -5.84375 L 4.875 -4.90625 C 4.59375 -5.050781 4.300781 -5.15625 4 -5.21875 C 3.695312 -5.289062 3.382812 -5.328125 3.0625 -5.328125 C 2.570312 -5.328125 2.203125 -5.25 1.953125 -5.09375 C 1.710938 -4.945312 1.59375 -4.726562 1.59375 -4.4375 C 1.59375 -4.207031 1.679688 -4.023438 1.859375 -3.890625 C 2.035156 -3.765625 2.390625 -3.640625 2.921875 -3.515625 L 3.25 -3.4375 C 3.957031 -3.289062 4.457031 -3.078125 4.75 -2.796875 C 5.039062 -2.523438 5.1875 -2.144531 5.1875 -1.65625 C 5.1875 -1.101562 4.96875 -0.660156 4.53125 -0.328125 C 4.09375 -0.00390625 3.484375 0.15625 2.703125 0.15625 C 2.378906 0.15625 2.039062 0.125 1.6875 0.0625 C 1.34375 0 0.976562 -0.09375 0.59375 -0.21875 L 0.59375 -1.234375 C 0.957031 -1.046875 1.316406 -0.90625 1.671875 -0.8125 C 2.023438 -0.71875 2.378906 -0.671875 2.734375 -0.671875 C 3.191406 -0.671875 3.546875 -0.75 3.796875 -0.90625 C 4.046875 -1.070312 4.171875 -1.296875 4.171875 -1.578125 C 4.171875 -1.847656 4.082031 -2.054688 3.90625 -2.203125 C 3.726562 -2.347656 3.332031 -2.484375 2.71875 -2.609375 L 2.375 -2.703125 C 1.757812 -2.828125 1.316406 -3.019531 1.046875 -3.28125 C 0.773438 -3.550781 0.640625 -3.921875 0.640625 -4.390625 C 0.640625 -4.953125 0.835938 -5.382812 1.234375 -5.6875 C 1.640625 -6 2.210938 -6.15625 2.953125 -6.15625 C 3.316406 -6.15625 3.660156 -6.128906 3.984375 -6.078125 C 4.304688 -6.023438 4.601562 -5.945312 4.875 -5.84375 Z M 4.875 -5.84375 "/>
</g>
<g id="glyph-11-13">
<path d="M 4.515625 -5.09375 C 4.410156 -5.15625 4.289062 -5.203125 4.15625 -5.234375 C 4.03125 -5.265625 3.890625 -5.28125 3.734375 -5.28125 C 3.171875 -5.28125 2.738281 -5.097656 2.4375 -4.734375 C 2.144531 -4.367188 2 -3.847656 2 -3.171875 L 2 0 L 1 0 L 1 -6.015625 L 2 -6.015625 L 2 -5.078125 C 2.195312 -5.441406 2.460938 -5.710938 2.796875 -5.890625 C 3.128906 -6.066406 3.535156 -6.15625 4.015625 -6.15625 C 4.085938 -6.15625 4.160156 -6.148438 4.234375 -6.140625 C 4.316406 -6.140625 4.410156 -6.128906 4.515625 -6.109375 Z M 4.515625 -5.09375 "/>
</g>
<g id="glyph-11-14">
<path d="M 6.03125 -3.625 L 6.03125 0 L 5.046875 0 L 5.046875 -3.59375 C 5.046875 -4.164062 4.9375 -4.59375 4.71875 -4.875 C 4.5 -5.15625 4.164062 -5.296875 3.71875 -5.296875 C 3.1875 -5.296875 2.765625 -5.125 2.453125 -4.78125 C 2.148438 -4.445312 2 -3.988281 2 -3.40625 L 2 0 L 1 0 L 1 -8.359375 L 2 -8.359375 L 2 -5.078125 C 2.226562 -5.441406 2.503906 -5.710938 2.828125 -5.890625 C 3.148438 -6.066406 3.519531 -6.15625 3.9375 -6.15625 C 4.625 -6.15625 5.144531 -5.941406 5.5 -5.515625 C 5.851562 -5.085938 6.03125 -4.457031 6.03125 -3.625 Z M 6.03125 -3.625 "/>
</g>
<g id="glyph-11-15">
<path d="M 1.078125 -8.015625 L 2.171875 -8.015625 L 2.171875 -4.625 L 5.765625 -8.015625 L 7.15625 -8.015625 L 3.1875 -4.28125 L 7.4375 0 L 6.015625 0 L 2.171875 -3.859375 L 2.171875 0 L 1.078125 0 Z M 1.078125 -8.015625 "/>
</g>
<g id="glyph-11-16">
<path d="M 0.328125 -6.015625 L 1.375 -6.015625 L 3.25 -0.96875 L 5.140625 -6.015625 L 6.1875 -6.015625 L 3.921875 0 L 2.578125 0 Z M 0.328125 -6.015625 "/>
</g>
<g id="glyph-11-17">
<path d="M 5.359375 -5.78125 L 5.359375 -4.859375 C 5.085938 -5.015625 4.8125 -5.128906 4.53125 -5.203125 C 4.25 -5.285156 3.960938 -5.328125 3.671875 -5.328125 C 3.035156 -5.328125 2.539062 -5.125 2.1875 -4.71875 C 1.832031 -4.3125 1.65625 -3.738281 1.65625 -3 C 1.65625 -2.269531 1.832031 -1.703125 2.1875 -1.296875 C 2.539062 -0.890625 3.035156 -0.6875 3.671875 -0.6875 C 3.960938 -0.6875 4.25 -0.722656 4.53125 -0.796875 C 4.8125 -0.867188 5.085938 -0.984375 5.359375 -1.140625 L 5.359375 -0.234375 C 5.085938 -0.0976562 4.800781 0 4.5 0.0625 C 4.207031 0.125 3.894531 0.15625 3.5625 0.15625 C 2.65625 0.15625 1.9375 -0.125 1.40625 -0.6875 C 0.875 -1.257812 0.609375 -2.03125 0.609375 -3 C 0.609375 -3.976562 0.875 -4.75 1.40625 -5.3125 C 1.945312 -5.875 2.6875 -6.15625 3.625 -6.15625 C 3.9375 -6.15625 4.234375 -6.125 4.515625 -6.0625 C 4.804688 -6 5.085938 -5.90625 5.359375 -5.78125 Z M 5.359375 -5.78125 "/>
</g>
<g id="glyph-11-18">
<path d="M 1.171875 -1.359375 L 2.3125 -1.359375 L 2.3125 0 L 1.171875 0 Z M 1.171875 -1.359375 "/>
</g>
<g id="glyph-11-19">
<path d="M -0.03125 -8.015625 L 6.75 -8.015625 L 6.75 -7.109375 L 3.90625 -7.109375 L 3.90625 0 L 2.8125 0 L 2.8125 -7.109375 L -0.03125 -7.109375 Z M -0.03125 -8.015625 "/>
</g>
<g id="glyph-11-20">
<path d="M 5 -5.109375 L 5 -8.359375 L 5.984375 -8.359375 L 5.984375 0 L 5 0 L 5 -0.90625 C 4.789062 -0.539062 4.523438 -0.269531 4.203125 -0.09375 C 3.890625 0.0703125 3.507812 0.15625 3.0625 0.15625 C 2.34375 0.15625 1.753906 -0.128906 1.296875 -0.703125 C 0.835938 -1.285156 0.609375 -2.050781 0.609375 -3 C 0.609375 -3.945312 0.835938 -4.707031 1.296875 -5.28125 C 1.753906 -5.863281 2.34375 -6.15625 3.0625 -6.15625 C 3.507812 -6.15625 3.890625 -6.066406 4.203125 -5.890625 C 4.523438 -5.722656 4.789062 -5.460938 5 -5.109375 Z M 1.625 -3 C 1.625 -2.269531 1.773438 -1.695312 2.078125 -1.28125 C 2.378906 -0.875 2.789062 -0.671875 3.3125 -0.671875 C 3.832031 -0.671875 4.242188 -0.875 4.546875 -1.28125 C 4.847656 -1.695312 5 -2.269531 5 -3 C 5 -3.726562 4.847656 -4.296875 4.546875 -4.703125 C 4.242188 -5.117188 3.832031 -5.328125 3.3125 -5.328125 C 2.789062 -5.328125 2.378906 -5.117188 2.078125 -4.703125 C 1.773438 -4.296875 1.625 -3.726562 1.625 -3 Z M 1.625 -3 "/>
</g>
<g id="glyph-11-21">
<path d="M 2 -0.90625 L 2 2.28125 L 1 2.28125 L 1 -6.015625 L 2 -6.015625 L 2 -5.109375 C 2.195312 -5.460938 2.453125 -5.722656 2.765625 -5.890625 C 3.085938 -6.066406 3.472656 -6.15625 3.921875 -6.15625 C 4.648438 -6.15625 5.238281 -5.863281 5.6875 -5.28125 C 6.144531 -4.707031 6.375 -3.945312 6.375 -3 C 6.375 -2.050781 6.144531 -1.285156 5.6875 -0.703125 C 5.238281 -0.128906 4.648438 0.15625 3.921875 0.15625 C 3.472656 0.15625 3.085938 0.0703125 2.765625 -0.09375 C 2.453125 -0.269531 2.195312 -0.539062 2 -0.90625 Z M 5.359375 -3 C 5.359375 -3.726562 5.207031 -4.296875 4.90625 -4.703125 C 4.601562 -5.117188 4.191406 -5.328125 3.671875 -5.328125 C 3.148438 -5.328125 2.738281 -5.117188 2.4375 -4.703125 C 2.144531 -4.296875 2 -3.726562 2 -3 C 2 -2.269531 2.144531 -1.695312 2.4375 -1.28125 C 2.738281 -0.875 3.148438 -0.671875 3.671875 -0.671875 C 4.191406 -0.671875 4.601562 -0.875 4.90625 -1.28125 C 5.207031 -1.695312 5.359375 -2.269531 5.359375 -3 Z M 5.359375 -3 "/>
</g>
<g id="glyph-11-22">
<path d="M 3.375 -5.328125 C 2.84375 -5.328125 2.421875 -5.117188 2.109375 -4.703125 C 1.804688 -4.285156 1.65625 -3.71875 1.65625 -3 C 1.65625 -2.28125 1.804688 -1.710938 2.109375 -1.296875 C 2.410156 -0.890625 2.832031 -0.6875 3.375 -0.6875 C 3.894531 -0.6875 4.304688 -0.890625 4.609375 -1.296875 C 4.921875 -1.710938 5.078125 -2.28125 5.078125 -3 C 5.078125 -3.71875 4.921875 -4.285156 4.609375 -4.703125 C 4.304688 -5.117188 3.894531 -5.328125 3.375 -5.328125 Z M 3.375 -6.15625 C 4.226562 -6.15625 4.898438 -5.875 5.390625 -5.3125 C 5.878906 -4.757812 6.125 -3.988281 6.125 -3 C 6.125 -2.019531 5.878906 -1.25 5.390625 -0.6875 C 4.898438 -0.125 4.226562 0.15625 3.375 0.15625 C 2.507812 0.15625 1.832031 -0.125 1.34375 -0.6875 C 0.851562 -1.25 0.609375 -2.019531 0.609375 -3 C 0.609375 -3.988281 0.851562 -4.757812 1.34375 -5.3125 C 1.832031 -5.875 2.507812 -6.15625 3.375 -6.15625 Z M 3.375 -6.15625 "/>
</g>
<g id="glyph-11-23">
<path d="M 1.296875 -1.359375 L 2.421875 -1.359375 L 2.421875 -0.4375 L 1.546875 1.28125 L 0.84375 1.28125 L 1.296875 -0.4375 Z M 1.296875 -1.359375 "/>
</g>
<g id="glyph-11-24">
<path d="M 2.171875 -3.828125 L 2.171875 -0.890625 L 3.90625 -0.890625 C 4.488281 -0.890625 4.921875 -1.007812 5.203125 -1.25 C 5.484375 -1.488281 5.625 -1.859375 5.625 -2.359375 C 5.625 -2.859375 5.484375 -3.226562 5.203125 -3.46875 C 4.921875 -3.707031 4.488281 -3.828125 3.90625 -3.828125 Z M 2.171875 -7.125 L 2.171875 -4.703125 L 3.765625 -4.703125 C 4.296875 -4.703125 4.691406 -4.800781 4.953125 -5 C 5.210938 -5.207031 5.34375 -5.515625 5.34375 -5.921875 C 5.34375 -6.328125 5.210938 -6.628906 4.953125 -6.828125 C 4.691406 -7.023438 4.296875 -7.125 3.765625 -7.125 Z M 1.078125 -8.015625 L 3.84375 -8.015625 C 4.675781 -8.015625 5.316406 -7.84375 5.765625 -7.5 C 6.210938 -7.15625 6.4375 -6.664062 6.4375 -6.03125 C 6.4375 -5.539062 6.320312 -5.148438 6.09375 -4.859375 C 5.863281 -4.578125 5.523438 -4.398438 5.078125 -4.328125 C 5.609375 -4.210938 6.019531 -3.972656 6.3125 -3.609375 C 6.613281 -3.242188 6.765625 -2.789062 6.765625 -2.25 C 6.765625 -1.53125 6.519531 -0.972656 6.03125 -0.578125 C 5.550781 -0.191406 4.859375 0 3.953125 0 L 1.078125 0 Z M 1.078125 -8.015625 "/>
</g>
<g id="glyph-11-25">
<path d="M 5 -3.078125 C 5 -3.796875 4.847656 -4.347656 4.546875 -4.734375 C 4.253906 -5.128906 3.84375 -5.328125 3.3125 -5.328125 C 2.78125 -5.328125 2.363281 -5.128906 2.0625 -4.734375 C 1.769531 -4.347656 1.625 -3.796875 1.625 -3.078125 C 1.625 -2.367188 1.769531 -1.816406 2.0625 -1.421875 C 2.363281 -1.023438 2.78125 -0.828125 3.3125 -0.828125 C 3.84375 -0.828125 4.253906 -1.023438 4.546875 -1.421875 C 4.847656 -1.816406 5 -2.367188 5 -3.078125 Z M 5.984375 -0.75 C 5.984375 0.28125 5.753906 1.039062 5.296875 1.53125 C 4.847656 2.03125 4.15625 2.28125 3.21875 2.28125 C 2.863281 2.28125 2.53125 2.253906 2.21875 2.203125 C 1.914062 2.148438 1.617188 2.070312 1.328125 1.96875 L 1.328125 1.015625 C 1.617188 1.171875 1.90625 1.285156 2.1875 1.359375 C 2.46875 1.429688 2.757812 1.46875 3.0625 1.46875 C 3.707031 1.46875 4.191406 1.296875 4.515625 0.953125 C 4.835938 0.617188 5 0.113281 5 -0.5625 L 5 -1.0625 C 4.789062 -0.707031 4.523438 -0.441406 4.203125 -0.265625 C 3.890625 -0.0859375 3.507812 0 3.0625 0 C 2.320312 0 1.726562 -0.28125 1.28125 -0.84375 C 0.832031 -1.40625 0.609375 -2.148438 0.609375 -3.078125 C 0.609375 -4.003906 0.832031 -4.75 1.28125 -5.3125 C 1.726562 -5.875 2.320312 -6.15625 3.0625 -6.15625 C 3.507812 -6.15625 3.890625 -6.066406 4.203125 -5.890625 C 4.523438 -5.722656 4.789062 -5.460938 5 -5.109375 L 5 -6.015625 L 5.984375 -6.015625 Z M 5.984375 -0.75 "/>
</g>
<g id="glyph-11-26">
<path d="M 4.078125 -8.359375 L 4.078125 -7.53125 L 3.140625 -7.53125 C 2.785156 -7.53125 2.535156 -7.457031 2.390625 -7.3125 C 2.253906 -7.175781 2.1875 -6.921875 2.1875 -6.546875 L 2.1875 -6.015625 L 3.8125 -6.015625 L 3.8125 -5.25 L 2.1875 -5.25 L 2.1875 0 L 1.203125 0 L 1.203125 -5.25 L 0.25 -5.25 L 0.25 -6.015625 L 1.203125 -6.015625 L 1.203125 -6.4375 C 1.203125 -7.101562 1.351562 -7.585938 1.65625 -7.890625 C 1.96875 -8.203125 2.460938 -8.359375 3.140625 -8.359375 Z M 4.078125 -8.359375 "/>
</g>
<g id="glyph-11-27">
<path d="M 0.53125 -3.40625 L 10.46875 -3.40625 L 10.46875 -2.625 L 0.53125 -2.625 Z M 0.53125 -3.40625 "/>
</g>
<g id="glyph-11-28">
<path d="M 5.71875 -4.859375 C 5.96875 -5.304688 6.265625 -5.632812 6.609375 -5.84375 C 6.953125 -6.050781 7.359375 -6.15625 7.828125 -6.15625 C 8.453125 -6.15625 8.929688 -5.9375 9.265625 -5.5 C 9.609375 -5.0625 9.78125 -4.4375 9.78125 -3.625 L 9.78125 0 L 8.78125 0 L 8.78125 -3.59375 C 8.78125 -4.175781 8.675781 -4.601562 8.46875 -4.875 C 8.269531 -5.15625 7.960938 -5.296875 7.546875 -5.296875 C 7.035156 -5.296875 6.628906 -5.125 6.328125 -4.78125 C 6.035156 -4.445312 5.890625 -3.988281 5.890625 -3.40625 L 5.890625 0 L 4.890625 0 L 4.890625 -3.59375 C 4.890625 -4.175781 4.785156 -4.601562 4.578125 -4.875 C 4.378906 -5.15625 4.066406 -5.296875 3.640625 -5.296875 C 3.140625 -5.296875 2.738281 -5.125 2.4375 -4.78125 C 2.144531 -4.445312 2 -3.988281 2 -3.40625 L 2 0 L 1 0 L 1 -6.015625 L 2 -6.015625 L 2 -5.078125 C 2.21875 -5.453125 2.484375 -5.722656 2.796875 -5.890625 C 3.117188 -6.066406 3.492188 -6.15625 3.921875 -6.15625 C 4.359375 -6.15625 4.726562 -6.046875 5.03125 -5.828125 C 5.34375 -5.609375 5.570312 -5.285156 5.71875 -4.859375 Z M 5.71875 -4.859375 "/>
</g>
<g id="glyph-11-29">
<path d="M 5.359375 -3 C 5.359375 -3.726562 5.207031 -4.296875 4.90625 -4.703125 C 4.601562 -5.117188 4.191406 -5.328125 3.671875 -5.328125 C 3.148438 -5.328125 2.738281 -5.117188 2.4375 -4.703125 C 2.144531 -4.296875 2 -3.726562 2 -3 C 2 -2.269531 2.144531 -1.695312 2.4375 -1.28125 C 2.738281 -0.875 3.148438 -0.671875 3.671875 -0.671875 C 4.191406 -0.671875 4.601562 -0.875 4.90625 -1.28125 C 5.207031 -1.695312 5.359375 -2.269531 5.359375 -3 Z M 2 -5.109375 C 2.195312 -5.460938 2.453125 -5.722656 2.765625 -5.890625 C 3.085938 -6.066406 3.472656 -6.15625 3.921875 -6.15625 C 4.648438 -6.15625 5.238281 -5.863281 5.6875 -5.28125 C 6.144531 -4.707031 6.375 -3.945312 6.375 -3 C 6.375 -2.050781 6.144531 -1.285156 5.6875 -0.703125 C 5.238281 -0.128906 4.648438 0.15625 3.921875 0.15625 C 3.472656 0.15625 3.085938 0.0703125 2.765625 -0.09375 C 2.453125 -0.269531 2.195312 -0.539062 2 -0.90625 L 2 0 L 1 0 L 1 -8.359375 L 2 -8.359375 Z M 2 -5.109375 "/>
</g>
</g>
</defs>
<rect x="-66" y="-24.4" width="792" height="292.8" fill="rgb(100%, 100%, 100%)" fill-opacity="1"/>
<g fill="rgb(12.156863%, 30.588235%, 47.45098%)" fill-opacity="1">
<use xlink:href="#glyph-0-0" x="273.066443" y="28"/>
</g>
<g fill="rgb(12.156863%, 30.588235%, 47.45098%)" fill-opacity="1">
<use xlink:href="#glyph-0-1" x="280.850443" y="28"/>
</g>
<g fill="rgb(12.156863%, 30.588235%, 47.45098%)" fill-opacity="1">
<use xlink:href="#glyph-0-2" x="288.634443" y="28"/>
</g>
<g fill="rgb(12.156863%, 30.588235%, 47.45098%)" fill-opacity="1">
<use xlink:href="#glyph-0-3" x="294.122443" y="28"/>
</g>
<g fill="rgb(12.156863%, 30.588235%, 47.45098%)" fill-opacity="1">
<use xlink:href="#glyph-0-4" x="301.122443" y="28"/>
</g>
<g fill="rgb(12.156863%, 30.588235%, 47.45098%)" fill-opacity="1">
<use xlink:href="#glyph-0-2" x="307.338443" y="28"/>
</g>
<g fill="rgb(12.156863%, 30.588235%, 47.45098%)" fill-opacity="1">
<use xlink:href="#glyph-0-5" x="312.826442" y="28"/>
</g>
<g fill="rgb(12.156863%, 30.588235%, 47.45098%)" fill-opacity="1">
<use xlink:href="#glyph-0-6" x="318.342443" y="28"/>
</g>
<g fill="rgb(12.156863%, 30.588235%, 47.45098%)" fill-opacity="1">
<use xlink:href="#glyph-1-0" x="322.738441" y="28"/>
</g>
<g fill="rgb(12.156863%, 30.588235%, 47.45098%)" fill-opacity="1">
<use xlink:href="#glyph-2-0" x="329.178442" y="30.8"/>
</g>
<g fill="rgb(12.156863%, 30.588235%, 47.45098%)" fill-opacity="1">
<use xlink:href="#glyph-0-7" x="332.626872" y="28"/>
</g>
<g fill="rgb(12.156863%, 30.588235%, 47.45098%)" fill-opacity="1">
<use xlink:href="#glyph-0-8" x="338.852255" y="28"/>
</g>
<g fill="rgb(12.156863%, 30.588235%, 47.45098%)" fill-opacity="1">
<use xlink:href="#glyph-2-0" x="345.810255" y="30.8"/>
</g>
<g fill="rgb(12.156863%, 30.588235%, 47.45098%)" fill-opacity="1">
<use xlink:href="#glyph-0-7" x="349.265998" y="28"/>
</g>
<g fill="rgb(12.156863%, 30.588235%, 47.45098%)" fill-opacity="1">
<use xlink:href="#glyph-1-0" x="355.491374" y="28"/>
</g>
<g fill="rgb(12.156863%, 30.588235%, 47.45098%)" fill-opacity="1">
<use xlink:href="#glyph-2-1" x="361.931374" y="30.8"/>
</g>
<g fill="rgb(12.156863%, 30.588235%, 47.45098%)" fill-opacity="1">
<use xlink:href="#glyph-0-7" x="366.223776" y="28"/>
</g>
<g fill="rgb(12.156863%, 30.588235%, 47.45098%)" fill-opacity="1">
<use xlink:href="#glyph-0-8" x="372.449159" y="28"/>
</g>
<g fill="rgb(12.156863%, 30.588235%, 47.45098%)" fill-opacity="1">
<use xlink:href="#glyph-2-1" x="379.407159" y="30.8"/>
</g>
<g fill="rgb(12.156863%, 30.588235%, 47.45098%)" fill-opacity="1">
<use xlink:href="#glyph-0-9" x="383.699556" y="28"/>
</g>
<path fill="none" stroke-width="1.6" stroke-linecap="butt" stroke-linejoin="miter" stroke="rgb(20%, 20%, 20%)" stroke-opacity="1" stroke-miterlimit="10" d="M 50 116 L 32 116 "/>
<path fill-rule="nonzero" fill="rgb(20%, 20%, 20%)" fill-opacity="1" d="M 34.601562 116 C 34.601562 117.4375 33.4375 118.601562 32 118.601562 C 30.5625 118.601562 29.398438 117.4375 29.398438 116 C 29.398438 114.5625 30.5625 113.398438 32 113.398438 C 33.4375 113.398438 34.601562 114.5625 34.601562 116 Z M 34.601562 116 "/>
<path fill="none" stroke-width="1.6" stroke-linecap="butt" stroke-linejoin="miter" stroke="rgb(20%, 20%, 20%)" stroke-opacity="1" stroke-miterlimit="10" d="M 50 116 L 70 116 "/>
<path fill="none" stroke-width="1.6" stroke-linecap="butt" stroke-linejoin="miter" stroke="rgb(20%, 20%, 20%)" stroke-opacity="1" stroke-miterlimit="10" d="M 155 116 L 175 116 "/>
<path fill="none" stroke-width="2" stroke-linecap="butt" stroke-linejoin="miter" stroke="rgb(18.039216%, 42.745098%, 64.313725%)" stroke-opacity="1" stroke-miterlimit="10" d="M 70 116 L 75.3125 105 L 85.9375 127 L 96.5625 105 L 107.1875 127 L 117.8125 105 L 128.4375 127 L 139.0625 105 L 149.6875 127 L 155 116 "/>
<g fill="rgb(10.196078%, 10.196078%, 10.196078%)" fill-opacity="1">
<use xlink:href="#glyph-3-0" x="108.1723" y="90"/>
</g>
<g fill="rgb(10.196078%, 10.196078%, 10.196078%)" fill-opacity="1">
<use xlink:href="#glyph-4-0" x="114.1523" y="92.6"/>
</g>
<path fill-rule="nonzero" fill="rgb(85.098039%, 50.980392%, 16.862745%)" fill-opacity="0.13" d="M 210.5 105 L 282.5 105 L 282.5 127 L 210.5 127 Z M 210.5 105 "/>
<path fill="none" stroke-width="1.6" stroke-linecap="butt" stroke-linejoin="miter" stroke="rgb(20%, 20%, 20%)" stroke-opacity="1" stroke-miterlimit="10" d="M 175 116 L 237.5 116 "/>
<path fill="none" stroke-width="1.6" stroke-linecap="butt" stroke-linejoin="miter" stroke="rgb(20%, 20%, 20%)" stroke-opacity="1" stroke-miterlimit="10" d="M 282.5 116 L 300 116 "/>
<path fill="none" stroke-width="2" stroke-linecap="butt" stroke-linejoin="miter" stroke="rgb(85.098039%, 50.980392%, 16.862745%)" stroke-opacity="1" stroke-miterlimit="10" d="M 210.5 105 L 282.5 105 L 282.5 127 L 210.5 127 "/>
<path fill="none" stroke-width="3.4" stroke-linecap="butt" stroke-linejoin="miter" stroke="rgb(85.098039%, 50.980392%, 16.862745%)" stroke-opacity="1" stroke-miterlimit="10" d="M 237.5 106.5 L 237.5 125.5 "/>
<g fill="rgb(10.196078%, 10.196078%, 10.196078%)" fill-opacity="1">
<use xlink:href="#glyph-5-0" x="232.9318" y="90"/>
</g>
<g fill="rgb(10.196078%, 10.196078%, 10.196078%)" fill-opacity="1">
<use xlink:href="#glyph-4-0" x="239.3928" y="92.6"/>
</g>
<path fill="none" stroke-width="1.6" stroke-linecap="butt" stroke-linejoin="miter" stroke="rgb(20%, 20%, 20%)" stroke-opacity="1" stroke-miterlimit="10" d="M 300 116 L 344 116 "/>
<path fill="none" stroke-width="1.6" stroke-linecap="butt" stroke-linejoin="miter" stroke="rgb(20%, 20%, 20%)" stroke-opacity="1" stroke-miterlimit="10" d="M 360 87 L 382.398438 87 "/>
<path fill="none" stroke-width="1.6" stroke-linecap="butt" stroke-linejoin="miter" stroke="rgb(20%, 20%, 20%)" stroke-opacity="1" stroke-miterlimit="10" d="M 477.601562 87 L 500 87 "/>
<path fill="none" stroke-width="2" stroke-linecap="butt" stroke-linejoin="miter" stroke="rgb(18.039216%, 42.745098%, 64.313725%)" stroke-opacity="1" stroke-miterlimit="10" d="M 382.398438 87 L 388.351562 76 L 400.25 98 L 412.148438 76 L 424.050781 98 L 435.949219 76 L 447.851562 98 L 459.75 76 L 471.648438 98 L 477.601562 87 "/>
<g fill="rgb(10.196078%, 10.196078%, 10.196078%)" fill-opacity="1">
<use xlink:href="#glyph-3-0" x="425.0756" y="61"/>
</g>
<g fill="rgb(10.196078%, 10.196078%, 10.196078%)" fill-opacity="1">
<use xlink:href="#glyph-4-1" x="431.0556" y="63.6"/>
</g>
<path fill-rule="nonzero" fill="rgb(85.098039%, 50.980392%, 16.862745%)" fill-opacity="0.13" d="M 399.761719 134 L 480.402344 134 L 480.402344 156 L 399.761719 156 Z M 399.761719 134 "/>
<path fill="none" stroke-width="1.6" stroke-linecap="butt" stroke-linejoin="miter" stroke="rgb(20%, 20%, 20%)" stroke-opacity="1" stroke-miterlimit="10" d="M 360 145 L 430 145 "/>
<path fill="none" stroke-width="1.6" stroke-linecap="butt" stroke-linejoin="miter" stroke="rgb(20%, 20%, 20%)" stroke-opacity="1" stroke-miterlimit="10" d="M 480.398438 145 L 500 145 "/>
<path fill="none" stroke-width="2" stroke-linecap="butt" stroke-linejoin="miter" stroke="rgb(85.098039%, 50.980392%, 16.862745%)" stroke-opacity="1" stroke-miterlimit="10" d="M 399.761719 134 L 480.398438 134 L 480.398438 156 L 399.761719 156 "/>
<path fill="none" stroke-width="3.4" stroke-linecap="butt" stroke-linejoin="miter" stroke="rgb(85.098039%, 50.980392%, 16.862745%)" stroke-opacity="1" stroke-miterlimit="10" d="M 430 135.5 L 430 154.5 "/>
<g fill="rgb(10.196078%, 10.196078%, 10.196078%)" fill-opacity="1">
<use xlink:href="#glyph-5-0" x="424.8351" y="171"/>
</g>
<g fill="rgb(10.196078%, 10.196078%, 10.196078%)" fill-opacity="1">
<use xlink:href="#glyph-4-1" x="431.2961" y="173.6"/>
</g>
<path fill="none" stroke-width="1.6" stroke-linecap="butt" stroke-linejoin="miter" stroke="rgb(20%, 20%, 20%)" stroke-opacity="1" stroke-miterlimit="10" d="M 360 87 L 360 145 "/>
<path fill="none" stroke-width="1.6" stroke-linecap="butt" stroke-linejoin="miter" stroke="rgb(20%, 20%, 20%)" stroke-opacity="1" stroke-miterlimit="10" d="M 500 87 L 500 145 "/>
<path fill="none" stroke-width="1.6" stroke-linecap="butt" stroke-linejoin="miter" stroke="rgb(20%, 20%, 20%)" stroke-opacity="1" stroke-miterlimit="10" d="M 344 116 L 360 116 "/>
<path fill="none" stroke-width="1.6" stroke-linecap="butt" stroke-linejoin="miter" stroke="rgb(20%, 20%, 20%)" stroke-opacity="1" stroke-miterlimit="10" d="M 500 116 L 516 116 "/>
<path fill="none" stroke-width="1.6" stroke-linecap="butt" stroke-linejoin="miter" stroke="rgb(20%, 20%, 20%)" stroke-opacity="1" stroke-miterlimit="10" d="M 516 116 L 534 116 "/>
<path fill-rule="nonzero" fill="rgb(20%, 20%, 20%)" fill-opacity="1" d="M 536.601562 116 C 536.601562 117.4375 535.4375 118.601562 534 118.601562 C 532.5625 118.601562 531.398438 117.4375 531.398438 116 C 531.398438 114.5625 532.5625 113.398438 534 113.398438 C 535.4375 113.398438 536.601562 114.5625 536.601562 116 Z M 536.601562 116 "/>
<g fill="rgb(10.196078%, 10.196078%, 10.196078%)" fill-opacity="1">
<use xlink:href="#glyph-6-0" x="243.74688" y="202"/>
</g>
<g fill="rgb(10.196078%, 10.196078%, 10.196078%)" fill-opacity="1">
<use xlink:href="#glyph-7-0" x="251.21088" y="202"/>
</g>
<g fill="rgb(10.196078%, 10.196078%, 10.196078%)" fill-opacity="1">
<use xlink:href="#glyph-6-1" x="254.78688" y="202"/>
</g>
<g fill="rgb(10.196078%, 10.196078%, 10.196078%)" fill-opacity="1">
<use xlink:href="#glyph-7-1" x="259.26288" y="202"/>
</g>
<g fill="rgb(10.196078%, 10.196078%, 10.196078%)" fill-opacity="1">
<use xlink:href="#glyph-7-2" x="266.330881" y="202"/>
</g>
<g fill="rgb(10.196078%, 10.196078%, 10.196078%)" fill-opacity="1">
<use xlink:href="#glyph-7-3" x="278.066882" y="202"/>
</g>
<g fill="rgb(10.196078%, 10.196078%, 10.196078%)" fill-opacity="1">
<use xlink:href="#glyph-7-4" x="284.066882" y="202"/>
</g>
<g fill="rgb(10.196078%, 10.196078%, 10.196078%)" fill-opacity="1">
<use xlink:href="#glyph-6-2" x="289.166881" y="202"/>
</g>
<g fill="rgb(10.196078%, 10.196078%, 10.196078%)" fill-opacity="1">
<use xlink:href="#glyph-8-0" x="294.686882" y="204.4"/>
</g>
<g fill="rgb(10.196078%, 10.196078%, 10.196078%)" fill-opacity="1">
<use xlink:href="#glyph-7-5" x="300.031679" y="202"/>
</g>
<g fill="rgb(10.196078%, 10.196078%, 10.196078%)" fill-opacity="1">
<use xlink:href="#glyph-6-1" x="311.767678" y="202"/>
</g>
<g fill="rgb(10.196078%, 10.196078%, 10.196078%)" fill-opacity="1">
<use xlink:href="#glyph-7-4" x="316.24368" y="202"/>
</g>
<g fill="rgb(10.196078%, 10.196078%, 10.196078%)" fill-opacity="1">
<use xlink:href="#glyph-7-6" x="321.895682" y="202"/>
</g>
<g fill="rgb(10.196078%, 10.196078%, 10.196078%)" fill-opacity="1">
<use xlink:href="#glyph-8-0" x="327.859682" y="204.4"/>
</g>
<g fill="rgb(10.196078%, 10.196078%, 10.196078%)" fill-opacity="1">
<use xlink:href="#glyph-7-5" x="333.204479" y="202"/>
</g>
<g fill="rgb(10.196078%, 10.196078%, 10.196078%)" fill-opacity="1">
<use xlink:href="#glyph-7-0" x="344.940484" y="202"/>
</g>
<g fill="rgb(10.196078%, 10.196078%, 10.196078%)" fill-opacity="1">
<use xlink:href="#glyph-7-3" x="349.608483" y="202"/>
</g>
<g fill="rgb(10.196078%, 10.196078%, 10.196078%)" fill-opacity="1">
<use xlink:href="#glyph-7-7" x="358.008483" y="202"/>
</g>
<g fill="rgb(10.196078%, 10.196078%, 10.196078%)" fill-opacity="1">
<use xlink:href="#glyph-6-3" x="369.744477" y="202"/>
</g>
<g fill="rgb(10.196078%, 10.196078%, 10.196078%)" fill-opacity="1">
<use xlink:href="#glyph-9-0" x="375.360477" y="196.828"/>
</g>
<g fill="rgb(10.196078%, 10.196078%, 10.196078%)" fill-opacity="1">
<use xlink:href="#glyph-8-1" x="380.306877" y="196.828"/>
</g>
<g fill="rgb(10.196078%, 10.196078%, 10.196078%)" fill-opacity="1">
<use xlink:href="#glyph-8-2" x="382.697278" y="196.828"/>
</g>
<g fill="rgb(10.196078%, 10.196078%, 10.196078%)" fill-opacity="1">
<use xlink:href="#glyph-10-0" x="386.009278" y="198.268"/>
</g>
<g fill="rgb(10.196078%, 10.196078%, 10.196078%)" fill-opacity="1">
<use xlink:href="#glyph-9-1" x="388.216797" y="196.828"/>
</g>
<g fill="rgb(10.196078%, 10.196078%, 10.196078%)" fill-opacity="1">
<use xlink:href="#glyph-9-2" x="391.607996" y="196.828"/>
</g>
<g fill="rgb(10.196078%, 10.196078%, 10.196078%)" fill-opacity="1">
<use xlink:href="#glyph-10-0" x="395.186396" y="198.268"/>
</g>
<g fill="rgb(10.196078%, 10.196078%, 10.196078%)" fill-opacity="1">
<use xlink:href="#glyph-7-1" x="397.393918" y="202"/>
</g>
<g fill="rgb(10.196078%, 10.196078%, 10.196078%)" fill-opacity="1">
<use xlink:href="#glyph-7-4" x="402.061917" y="202"/>
</g>
<g fill="rgb(10.196078%, 10.196078%, 10.196078%)" fill-opacity="1">
<use xlink:href="#glyph-6-2" x="407.16192" y="202"/>
</g>
<g fill="rgb(10.196078%, 10.196078%, 10.196078%)" fill-opacity="1">
<use xlink:href="#glyph-8-3" x="412.68192" y="204.4"/>
</g>
<g fill="rgb(33.333333%, 33.333333%, 33.333333%)" fill-opacity="1">
<use xlink:href="#glyph-11-0" x="41.330566" y="226"/>
<use xlink:href="#glyph-11-1" x="48.855469" y="226"/>
<use xlink:href="#glyph-11-2" x="52.352051" y="226"/>
<use xlink:href="#glyph-11-3" x="61.842773" y="226"/>
<use xlink:href="#glyph-11-4" x="68.583496" y="226"/>
<use xlink:href="#glyph-11-5" x="75.093262" y="226"/>
<use xlink:href="#glyph-11-6" x="84.089844" y="226"/>
<use xlink:href="#glyph-11-7" x="90.857422" y="226"/>
<use xlink:href="#glyph-11-7" x="93.913574" y="226"/>
<use xlink:href="#glyph-11-1" x="96.969727" y="226"/>
<use xlink:href="#glyph-11-8" x="100.466309" y="226"/>
<use xlink:href="#glyph-11-9" x="107.437988" y="226"/>
<use xlink:href="#glyph-11-10" x="114.409668" y="226"/>
<use xlink:href="#glyph-11-11" x="117.46582" y="226"/>
<use xlink:href="#glyph-11-1" x="121.778809" y="226"/>
<use xlink:href="#glyph-11-10" x="125.275391" y="226"/>
<use xlink:href="#glyph-11-9" x="128.331543" y="226"/>
<use xlink:href="#glyph-11-1" x="135.303223" y="226"/>
<use xlink:href="#glyph-11-12" x="138.799805" y="226"/>
<use xlink:href="#glyph-11-6" x="144.530762" y="226"/>
<use xlink:href="#glyph-11-13" x="151.29834" y="226"/>
<use xlink:href="#glyph-11-10" x="155.820801" y="226"/>
<use xlink:href="#glyph-11-6" x="158.876953" y="226"/>
<use xlink:href="#glyph-11-12" x="165.644531" y="226"/>
<use xlink:href="#glyph-11-1" x="171.375488" y="226"/>
<use xlink:href="#glyph-11-5" x="174.87207" y="226"/>
<use xlink:href="#glyph-11-10" x="183.868652" y="226"/>
<use xlink:href="#glyph-11-11" x="186.924805" y="226"/>
<use xlink:href="#glyph-11-14" x="191.237793" y="226"/>
<use xlink:href="#glyph-11-1" x="198.209473" y="226"/>
<use xlink:href="#glyph-11-3" x="201.706055" y="226"/>
<use xlink:href="#glyph-11-1" x="208.446777" y="226"/>
<use xlink:href="#glyph-11-15" x="211.943359" y="226"/>
<use xlink:href="#glyph-11-6" x="219.156738" y="226"/>
<use xlink:href="#glyph-11-7" x="225.924316" y="226"/>
<use xlink:href="#glyph-11-16" x="228.980469" y="226"/>
<use xlink:href="#glyph-11-10" x="235.490234" y="226"/>
<use xlink:href="#glyph-11-9" x="238.546387" y="226"/>
<use xlink:href="#glyph-11-1" x="245.518066" y="226"/>
<use xlink:href="#glyph-11-17" x="249.014648" y="226"/>
<use xlink:href="#glyph-11-6" x="255.0625" y="226"/>
<use xlink:href="#glyph-11-7" x="261.830078" y="226"/>
<use xlink:href="#glyph-11-7" x="264.88623" y="226"/>
<use xlink:href="#glyph-11-18" x="267.942383" y="226"/>
<use xlink:href="#glyph-11-1" x="271.438965" y="226"/>
<use xlink:href="#glyph-11-19" x="274.935547" y="226"/>
<use xlink:href="#glyph-11-14" x="281.654785" y="226"/>
<use xlink:href="#glyph-11-6" x="288.626465" y="226"/>
<use xlink:href="#glyph-11-1" x="295.394043" y="226"/>
<use xlink:href="#glyph-11-12" x="298.890625" y="226"/>
<use xlink:href="#glyph-11-6" x="304.621582" y="226"/>
<use xlink:href="#glyph-11-13" x="311.38916" y="226"/>
<use xlink:href="#glyph-11-10" x="315.911621" y="226"/>
<use xlink:href="#glyph-11-6" x="318.967773" y="226"/>
<use xlink:href="#glyph-11-12" x="325.735352" y="226"/>
<use xlink:href="#glyph-11-1" x="331.466309" y="226"/>
<use xlink:href="#glyph-11-20" x="334.962891" y="226"/>
<use xlink:href="#glyph-11-3" x="341.945312" y="226"/>
<use xlink:href="#glyph-11-12" x="348.686035" y="226"/>
<use xlink:href="#glyph-11-14" x="354.416992" y="226"/>
<use xlink:href="#glyph-11-21" x="361.388672" y="226"/>
<use xlink:href="#glyph-11-22" x="368.371094" y="226"/>
<use xlink:href="#glyph-11-11" x="375.101074" y="226"/>
<use xlink:href="#glyph-11-1" x="379.414062" y="226"/>
<use xlink:href="#glyph-11-9" x="382.910645" y="226"/>
<use xlink:href="#glyph-11-6" x="389.882324" y="226"/>
<use xlink:href="#glyph-11-16" x="396.649902" y="226"/>
<use xlink:href="#glyph-11-6" x="403.159668" y="226"/>
<use xlink:href="#glyph-11-13" x="409.927246" y="226"/>
<use xlink:href="#glyph-11-1" x="414.449707" y="226"/>
<use xlink:href="#glyph-11-12" x="417.946289" y="226"/>
<use xlink:href="#glyph-11-11" x="423.677246" y="226"/>
<use xlink:href="#glyph-11-22" x="427.990234" y="226"/>
<use xlink:href="#glyph-11-21" x="434.720215" y="226"/>
<use xlink:href="#glyph-11-12" x="441.702637" y="226"/>
<use xlink:href="#glyph-11-23" x="447.433594" y="226"/>
<use xlink:href="#glyph-11-1" x="450.930176" y="226"/>
<use xlink:href="#glyph-11-12" x="454.426758" y="226"/>
<use xlink:href="#glyph-11-22" x="460.157715" y="226"/>
<use xlink:href="#glyph-11-1" x="466.887695" y="226"/>
<use xlink:href="#glyph-11-24" x="470.384277" y="226"/>
<use xlink:href="#glyph-11-8" x="477.930664" y="226"/>
<use xlink:href="#glyph-11-13" x="484.902344" y="226"/>
<use xlink:href="#glyph-11-25" x="489.424805" y="226"/>
<use xlink:href="#glyph-11-6" x="496.407227" y="226"/>
<use xlink:href="#glyph-11-13" x="503.174805" y="226"/>
<use xlink:href="#glyph-11-12" x="507.697266" y="226"/>
<use xlink:href="#glyph-11-1" x="513.428223" y="226"/>
<use xlink:href="#glyph-11-10" x="516.924805" y="226"/>
<use xlink:href="#glyph-11-12" x="519.980957" y="226"/>
<use xlink:href="#glyph-11-1" x="525.711914" y="226"/>
<use xlink:href="#glyph-11-3" x="529.208496" y="226"/>
<use xlink:href="#glyph-11-1" x="535.949219" y="226"/>
<use xlink:href="#glyph-11-26" x="539.445801" y="226"/>
<use xlink:href="#glyph-11-7" x="543.318359" y="226"/>
<use xlink:href="#glyph-11-8" x="546.374512" y="226"/>
<use xlink:href="#glyph-11-10" x="553.346191" y="226"/>
<use xlink:href="#glyph-11-20" x="556.402344" y="226"/>
<use xlink:href="#glyph-11-1" x="563.384766" y="226"/>
<use xlink:href="#glyph-11-27" x="566.881348" y="226"/>
<use xlink:href="#glyph-11-1" x="577.881348" y="226"/>
<use xlink:href="#glyph-11-3" x="581.37793" y="226"/>
<use xlink:href="#glyph-11-9" x="588.118652" y="226"/>
<use xlink:href="#glyph-11-20" x="595.090332" y="226"/>
<use xlink:href="#glyph-11-1" x="602.072754" y="226"/>
<use xlink:href="#glyph-11-10" x="605.569336" y="226"/>
<use xlink:href="#glyph-11-11" x="608.625488" y="226"/>
<use xlink:href="#glyph-11-12" x="612.938477" y="226"/>
</g>
<g fill="rgb(33.333333%, 33.333333%, 33.333333%)" fill-opacity="1">
<use xlink:href="#glyph-11-2" x="138.751465" y="240"/>
<use xlink:href="#glyph-11-3" x="148.242188" y="240"/>
<use xlink:href="#glyph-11-4" x="154.98291" y="240"/>
<use xlink:href="#glyph-11-5" x="161.492676" y="240"/>
<use xlink:href="#glyph-11-6" x="170.489258" y="240"/>
<use xlink:href="#glyph-11-7" x="177.256836" y="240"/>
<use xlink:href="#glyph-11-7" x="180.312988" y="240"/>
<use xlink:href="#glyph-11-1" x="183.369141" y="240"/>
<use xlink:href="#glyph-11-26" x="186.865723" y="240"/>
<use xlink:href="#glyph-11-22" x="190.738281" y="240"/>
<use xlink:href="#glyph-11-13" x="197.468262" y="240"/>
<use xlink:href="#glyph-11-28" x="201.990723" y="240"/>
<use xlink:href="#glyph-11-1" x="212.706055" y="240"/>
<use xlink:href="#glyph-11-11" x="216.202637" y="240"/>
<use xlink:href="#glyph-11-14" x="220.515625" y="240"/>
<use xlink:href="#glyph-11-6" x="227.487305" y="240"/>
<use xlink:href="#glyph-11-13" x="234.254883" y="240"/>
<use xlink:href="#glyph-11-6" x="238.777344" y="240"/>
<use xlink:href="#glyph-11-26" x="245.544922" y="240"/>
<use xlink:href="#glyph-11-22" x="249.41748" y="240"/>
<use xlink:href="#glyph-11-13" x="256.147461" y="240"/>
<use xlink:href="#glyph-11-6" x="260.669922" y="240"/>
<use xlink:href="#glyph-11-1" x="267.4375" y="240"/>
<use xlink:href="#glyph-11-17" x="270.934082" y="240"/>
<use xlink:href="#glyph-11-3" x="276.981934" y="240"/>
<use xlink:href="#glyph-11-13" x="283.722656" y="240"/>
<use xlink:href="#glyph-11-13" x="288.245117" y="240"/>
<use xlink:href="#glyph-11-10" x="292.767578" y="240"/>
<use xlink:href="#glyph-11-6" x="295.82373" y="240"/>
<use xlink:href="#glyph-11-12" x="302.591309" y="240"/>
<use xlink:href="#glyph-11-1" x="308.322266" y="240"/>
<use xlink:href="#glyph-11-22" x="311.818848" y="240"/>
<use xlink:href="#glyph-11-9" x="318.548828" y="240"/>
<use xlink:href="#glyph-11-6" x="325.520508" y="240"/>
<use xlink:href="#glyph-11-1" x="332.288086" y="240"/>
<use xlink:href="#glyph-11-29" x="335.784668" y="240"/>
<use xlink:href="#glyph-11-13" x="342.76709" y="240"/>
<use xlink:href="#glyph-11-3" x="347.289551" y="240"/>
<use xlink:href="#glyph-11-9" x="354.030273" y="240"/>
<use xlink:href="#glyph-11-17" x="361.001953" y="240"/>
<use xlink:href="#glyph-11-14" x="367.049805" y="240"/>
<use xlink:href="#glyph-11-1" x="374.021484" y="240"/>
<use xlink:href="#glyph-11-28" x="377.518066" y="240"/>
<use xlink:href="#glyph-11-22" x="388.233398" y="240"/>
<use xlink:href="#glyph-11-13" x="394.963379" y="240"/>
<use xlink:href="#glyph-11-6" x="399.48584" y="240"/>
<use xlink:href="#glyph-11-1" x="406.253418" y="240"/>
<use xlink:href="#glyph-11-11" x="409.75" y="240"/>
<use xlink:href="#glyph-11-14" x="414.062988" y="240"/>
<use xlink:href="#glyph-11-3" x="421.034668" y="240"/>
<use xlink:href="#glyph-11-9" x="427.775391" y="240"/>
<use xlink:href="#glyph-11-1" x="434.74707" y="240"/>
<use xlink:href="#glyph-11-10" x="438.243652" y="240"/>
<use xlink:href="#glyph-11-11" x="441.299805" y="240"/>
<use xlink:href="#glyph-11-12" x="445.612793" y="240"/>
<use xlink:href="#glyph-11-1" x="451.34375" y="240"/>
<use xlink:href="#glyph-11-15" x="454.840332" y="240"/>
<use xlink:href="#glyph-11-6" x="462.053711" y="240"/>
<use xlink:href="#glyph-11-7" x="468.821289" y="240"/>
<use xlink:href="#glyph-11-16" x="471.877441" y="240"/>
<use xlink:href="#glyph-11-10" x="478.387207" y="240"/>
<use xlink:href="#glyph-11-9" x="481.443359" y="240"/>
<use xlink:href="#glyph-11-1" x="488.415039" y="240"/>
<use xlink:href="#glyph-11-26" x="491.911621" y="240"/>
<use xlink:href="#glyph-11-22" x="495.78418" y="240"/>
<use xlink:href="#glyph-11-13" x="502.51416" y="240"/>
<use xlink:href="#glyph-11-28" x="507.036621" y="240"/>
<use xlink:href="#glyph-11-18" x="517.751953" y="240"/>
</g>
</svg>
