<?xml version="1.0" encoding="UTF-8"?>
<svg xmlns="http://www.w3.org/2000/svg" xmlns:xlink="http://www.w3.org/1999/xlink" width="660" height="176" viewBox="0 0 660 176">
<defs>
<g>
<g id="glyph-0-0">
<path d="M 1.28125 -9.484375 L 7.265625 -9.484375 L 7.265625 -8.390625 L 2.5625 -8.390625 L 2.5625 -5.59375 L 7.078125 -5.59375 L 7.078125 -4.515625 L 2.5625 -4.515625 L 2.5625 -1.078125 L 7.375 -1.078125 L 7.375 0 L 1.28125 0 Z M 1.28125 -9.484375 "/>
</g>
<g id="glyph-0-1">
<path d="M 3.71875 0 L 0.109375 -9.484375 L 1.4375 -9.484375 L 4.4375 -1.5 L 7.453125 -9.484375 L 8.78125 -9.484375 L 5.171875 0 Z M 3.71875 0 "/>
</g>
<g id="glyph-1-0">
<path d="M 7.140625 -4.296875 L 7.140625 2.703125 L 5.96875 2.703125 L 5.96875 -4.25 C 5.96875 -4.925781 5.835938 -5.429688 5.578125 -5.765625 C 5.316406 -6.097656 4.921875 -6.265625 4.390625 -6.265625 C 3.765625 -6.265625 3.269531 -6.0625 2.90625 -5.65625 C 2.539062 -5.257812 2.359375 -4.710938 2.359375 -4.015625 L 2.359375 0 L 1.1875 0 L 1.1875 -7.109375 L 2.359375 -7.109375 L 2.359375 -6 C 2.640625 -6.425781 2.96875 -6.75 3.34375 -6.96875 C 3.71875 -7.175781 4.15625 -7.28125 4.65625 -7.28125 C 5.46875 -7.28125 6.082031 -7.03125 6.5 -6.53125 C 6.925781 -6.019531 7.140625 -5.273438 7.140625 -4.296875 Z M 7.140625 -4.296875 "/>
</g>
<g id="glyph-2-0">
<path d="M 4.546875 -2.796875 L 4.3125 -4.046875 C 4.144531 -4.890625 3.742188 -5.3125 3.109375 -5.3125 C 2.628906 -5.3125 2.28125 -5.113281 2.0625 -4.71875 C 1.789062 -4.226562 1.65625 -3.65625 1.65625 -3 C 1.65625 -2.21875 1.785156 -1.632812 2.046875 -1.25 C 2.316406 -0.875 2.671875 -0.6875 3.109375 -0.6875 C 3.585938 -0.6875 3.957031 -1.066406 4.21875 -1.828125 Z M 5.09375 -4.4375 L 5.625 -6.015625 L 6.515625 -6.015625 L 5.40625 -2.75 L 5.625 -1.578125 C 5.65625 -1.398438 5.734375 -1.238281 5.859375 -1.09375 C 6.003906 -0.925781 6.132812 -0.84375 6.25 -0.84375 L 6.71875 -0.84375 L 6.71875 0 L 6.140625 0 C 5.796875 0 5.472656 -0.148438 5.171875 -0.453125 C 5.023438 -0.597656 4.921875 -0.832031 4.859375 -1.15625 C 4.703125 -0.75 4.453125 -0.394531 4.109375 -0.09375 C 3.953125 0.0625 3.617188 0.140625 3.109375 0.140625 C 2.265625 0.140625 1.640625 -0.132812 1.234375 -0.6875 C 0.816406 -1.25 0.609375 -2.019531 0.609375 -3 C 0.609375 -4.050781 0.835938 -4.828125 1.296875 -5.328125 C 1.796875 -5.878906 2.398438 -6.15625 3.109375 -6.15625 C 4.222656 -6.15625 4.882812 -5.582031 5.09375 -4.4375 Z M 5.09375 -4.4375 "/>
</g>
<g id="glyph-3-0">
<path d="M 6.421875 -8.46875 L 6.421875 -7.3125 C 5.972656 -7.519531 5.546875 -7.675781 5.140625 -7.78125 C 4.742188 -7.894531 4.363281 -7.953125 4 -7.953125 C 3.351562 -7.953125 2.851562 -7.828125 2.5 -7.578125 C 2.15625 -7.328125 1.984375 -6.96875 1.984375 -6.5 C 1.984375 -6.113281 2.097656 -5.820312 2.328125 -5.625 C 2.554688 -5.425781 3 -5.269531 3.65625 -5.15625 L 4.359375 -5 C 5.242188 -4.832031 5.894531 -4.535156 6.3125 -4.109375 C 6.738281 -3.691406 6.953125 -3.128906 6.953125 -2.421875 C 6.953125 -1.566406 6.664062 -0.921875 6.09375 -0.484375 C 5.53125 -0.046875 4.695312 0.171875 3.59375 0.171875 C 3.1875 0.171875 2.75 0.125 2.28125 0.03125 C 1.8125 -0.0625 1.328125 -0.203125 0.828125 -0.390625 L 0.828125 -1.609375 C 1.304688 -1.335938 1.773438 -1.132812 2.234375 -1 C 2.703125 -0.863281 3.15625 -0.796875 3.59375 -0.796875 C 4.269531 -0.796875 4.789062 -0.925781 5.15625 -1.1875 C 5.53125 -1.457031 5.71875 -1.835938 5.71875 -2.328125 C 5.71875 -2.753906 5.582031 -3.085938 5.3125 -3.328125 C 5.050781 -3.578125 4.617188 -3.757812 4.015625 -3.875 L 3.296875 -4.015625 C 2.410156 -4.191406 1.769531 -4.46875 1.375 -4.84375 C 0.988281 -5.21875 0.796875 -5.738281 0.796875 -6.40625 C 0.796875 -7.1875 1.066406 -7.796875 1.609375 -8.234375 C 2.148438 -8.679688 2.898438 -8.90625 3.859375 -8.90625 C 4.273438 -8.90625 4.691406 -8.867188 5.109375 -8.796875 C 5.535156 -8.722656 5.972656 -8.613281 6.421875 -8.46875 Z M 6.421875 -8.46875 "/>
</g>
<g id="glyph-3-1">
<path d="M 2.171875 -0.984375 L 2.171875 2.5 L 1.09375 2.5 L 1.09375 -6.5625 L 2.171875 -6.5625 L 2.171875 -5.5625 C 2.398438 -5.957031 2.6875 -6.25 3.03125 -6.4375 C 3.375 -6.625 3.785156 -6.71875 4.265625 -6.71875 C 5.066406 -6.71875 5.71875 -6.398438 6.21875 -5.765625 C 6.71875 -5.140625 6.96875 -4.3125 6.96875 -3.28125 C 6.96875 -2.25 6.71875 -1.414062 6.21875 -0.78125 C 5.71875 -0.144531 5.066406 0.171875 4.265625 0.171875 C 3.785156 0.171875 3.375 0.078125 3.03125 -0.109375 C 2.6875 -0.304688 2.398438 -0.597656 2.171875 -0.984375 Z M 5.84375 -3.28125 C 5.84375 -4.070312 5.675781 -4.691406 5.34375 -5.140625 C 5.019531 -5.585938 4.578125 -5.8125 4.015625 -5.8125 C 3.441406 -5.8125 2.988281 -5.585938 2.65625 -5.140625 C 2.332031 -4.691406 2.171875 -4.070312 2.171875 -3.28125 C 2.171875 -2.488281 2.332031 -1.863281 2.65625 -1.40625 C 2.988281 -0.957031 3.441406 -0.734375 4.015625 -0.734375 C 4.578125 -0.734375 5.019531 -0.957031 5.34375 -1.40625 C 5.675781 -1.863281 5.84375 -2.488281 5.84375 -3.28125 Z M 5.84375 -3.28125 "/>
</g>
<g id="glyph-3-2">
<path d="M 4.9375 -5.5625 C 4.8125 -5.625 4.675781 -5.671875 4.53125 -5.703125 C 4.394531 -5.742188 4.238281 -5.765625 4.0625 -5.765625 C 3.457031 -5.765625 2.988281 -5.566406 2.65625 -5.171875 C 2.332031 -4.773438 2.171875 -4.203125 2.171875 -3.453125 L 2.171875 0 L 1.09375 0 L 1.09375 -6.5625 L 2.171875 -6.5625 L 2.171875 -5.546875 C 2.398438 -5.941406 2.695312 -6.234375 3.0625 -6.421875 C 3.425781 -6.617188 3.867188 -6.71875 4.390625 -6.71875 C 4.460938 -6.71875 4.539062 -6.710938 4.625 -6.703125 C 4.71875 -6.691406 4.816406 -6.675781 4.921875 -6.65625 Z M 4.9375 -5.5625 "/>
</g>
<g id="glyph-3-3">
<path d="M 1.125 -6.5625 L 2.203125 -6.5625 L 2.203125 0 L 1.125 0 Z M 1.125 -9.125 L 2.203125 -9.125 L 2.203125 -7.75 L 1.125 -7.75 Z M 1.125 -9.125 "/>
</g>
<g id="glyph-3-4">
<path d="M 6.59375 -3.96875 L 6.59375 0 L 5.515625 0 L 5.515625 -3.921875 C 5.515625 -4.546875 5.390625 -5.007812 5.140625 -5.3125 C 4.898438 -5.625 4.539062 -5.78125 4.0625 -5.78125 C 3.476562 -5.78125 3.015625 -5.59375 2.671875 -5.21875 C 2.335938 -4.851562 2.171875 -4.347656 2.171875 -3.703125 L 2.171875 0 L 1.09375 0 L 1.09375 -6.5625 L 2.171875 -6.5625 L 2.171875 -5.546875 C 2.429688 -5.941406 2.734375 -6.234375 3.078125 -6.421875 C 3.429688 -6.617188 3.835938 -6.71875 4.296875 -6.71875 C 5.046875 -6.71875 5.613281 -6.484375 6 -6.015625 C 6.394531 -5.554688 6.59375 -4.875 6.59375 -3.96875 Z M 6.59375 -3.96875 "/>
</g>
<g id="glyph-3-5">
<path d="M 5.453125 -3.359375 C 5.453125 -4.140625 5.289062 -4.742188 4.96875 -5.171875 C 4.644531 -5.597656 4.191406 -5.8125 3.609375 -5.8125 C 3.035156 -5.8125 2.585938 -5.597656 2.265625 -5.171875 C 1.941406 -4.742188 1.78125 -4.140625 1.78125 -3.359375 C 1.78125 -2.578125 1.941406 -1.972656 2.265625 -1.546875 C 2.585938 -1.117188 3.035156 -0.90625 3.609375 -0.90625 C 4.191406 -0.90625 4.644531 -1.117188 4.96875 -1.546875 C 5.289062 -1.972656 5.453125 -2.578125 5.453125 -3.359375 Z M 6.53125 -0.8125 C 6.53125 0.300781 6.28125 1.128906 5.78125 1.671875 C 5.289062 2.222656 4.53125 2.5 3.5 2.5 C 3.125 2.5 2.765625 2.46875 2.421875 2.40625 C 2.085938 2.351562 1.765625 2.269531 1.453125 2.15625 L 1.453125 1.109375 C 1.765625 1.273438 2.078125 1.398438 2.390625 1.484375 C 2.703125 1.566406 3.015625 1.609375 3.328125 1.609375 C 4.035156 1.609375 4.566406 1.421875 4.921875 1.046875 C 5.273438 0.679688 5.453125 0.125 5.453125 -0.625 L 5.453125 -1.15625 C 5.222656 -0.769531 4.9375 -0.476562 4.59375 -0.28125 C 4.25 -0.09375 3.832031 0 3.34375 0 C 2.539062 0 1.890625 -0.304688 1.390625 -0.921875 C 0.898438 -1.535156 0.65625 -2.347656 0.65625 -3.359375 C 0.65625 -4.367188 0.898438 -5.179688 1.390625 -5.796875 C 1.890625 -6.410156 2.539062 -6.71875 3.34375 -6.71875 C 3.832031 -6.71875 4.25 -6.617188 4.59375 -6.421875 C 4.9375 -6.234375 5.222656 -5.945312 5.453125 -5.5625 L 5.453125 -6.5625 L 6.53125 -6.5625 Z M 6.53125 -0.8125 "/>
</g>
<g id="glyph-3-6">
<path d="M 3.71875 -9.109375 C 3.195312 -8.210938 2.804688 -7.320312 2.546875 -6.4375 C 2.296875 -5.5625 2.171875 -4.671875 2.171875 -3.765625 C 2.171875 -2.867188 2.296875 -1.976562 2.546875 -1.09375 C 2.804688 -0.207031 3.195312 0.679688 3.71875 1.578125 L 2.78125 1.578125 C 2.195312 0.660156 1.757812 -0.238281 1.46875 -1.125 C 1.175781 -2.007812 1.03125 -2.890625 1.03125 -3.765625 C 1.03125 -4.640625 1.175781 -5.515625 1.46875 -6.390625 C 1.757812 -7.273438 2.195312 -8.179688 2.78125 -9.109375 Z M 3.71875 -9.109375 "/>
</g>
<g id="glyph-3-7">
<path d="M 0.96875 -9.109375 L 1.90625 -9.109375 C 2.488281 -8.179688 2.925781 -7.273438 3.21875 -6.390625 C 3.507812 -5.515625 3.65625 -4.640625 3.65625 -3.765625 C 3.65625 -2.890625 3.507812 -2.007812 3.21875 -1.125 C 2.925781 -0.238281 2.488281 0.660156 1.90625 1.578125 L 0.96875 1.578125 C 1.476562 0.679688 1.863281 -0.207031 2.125 -1.09375 C 2.382812 -1.976562 2.515625 -2.867188 2.515625 -3.765625 C 2.515625 -4.671875 2.382812 -5.5625 2.125 -6.4375 C 1.863281 -7.320312 1.476562 -8.210938 0.96875 -9.109375 Z M 0.96875 -9.109375 "/>
</g>
<g id="glyph-3-8">
<path d="M 2.359375 -7.78125 L 2.359375 -0.96875 L 3.796875 -0.96875 C 5.003906 -0.96875 5.882812 -1.238281 6.4375 -1.78125 C 7 -2.332031 7.28125 -3.203125 7.28125 -4.390625 C 7.28125 -5.554688 7 -6.410156 6.4375 -6.953125 C 5.882812 -7.503906 5.003906 -7.78125 3.796875 -7.78125 Z M 1.171875 -8.75 L 3.609375 -8.75 C 5.304688 -8.75 6.550781 -8.394531 7.34375 -7.6875 C 8.132812 -6.988281 8.53125 -5.890625 8.53125 -4.390625 C 8.53125 -2.878906 8.128906 -1.769531 7.328125 -1.0625 C 6.535156 -0.351562 5.296875 0 3.609375 0 L 1.171875 0 Z M 1.171875 -8.75 "/>
</g>
<g id="glyph-3-9">
<path d="M 4.109375 -3.296875 C 3.242188 -3.296875 2.640625 -3.195312 2.296875 -3 C 1.960938 -2.800781 1.796875 -2.460938 1.796875 -1.984375 C 1.796875 -1.597656 1.921875 -1.289062 2.171875 -1.0625 C 2.429688 -0.84375 2.773438 -0.734375 3.203125 -0.734375 C 3.804688 -0.734375 4.285156 -0.941406 4.640625 -1.359375 C 5.003906 -1.785156 5.1875 -2.351562 5.1875 -3.0625 L 5.1875 -3.296875 Z M 6.265625 -3.75 L 6.265625 0 L 5.1875 0 L 5.1875 -1 C 4.9375 -0.601562 4.628906 -0.304688 4.265625 -0.109375 C 3.898438 0.078125 3.453125 0.171875 2.921875 0.171875 C 2.242188 0.171875 1.707031 -0.015625 1.3125 -0.390625 C 0.914062 -0.773438 0.71875 -1.28125 0.71875 -1.90625 C 0.71875 -2.644531 0.960938 -3.203125 1.453125 -3.578125 C 1.953125 -3.953125 2.691406 -4.140625 3.671875 -4.140625 L 5.1875 -4.140625 L 5.1875 -4.25 C 5.1875 -4.75 5.019531 -5.132812 4.6875 -5.40625 C 4.363281 -5.675781 3.910156 -5.8125 3.328125 -5.8125 C 2.953125 -5.8125 2.582031 -5.765625 2.21875 -5.671875 C 1.863281 -5.578125 1.523438 -5.441406 1.203125 -5.265625 L 1.203125 -6.265625 C 1.597656 -6.421875 1.976562 -6.535156 2.34375 -6.609375 C 2.71875 -6.679688 3.082031 -6.71875 3.4375 -6.71875 C 4.382812 -6.71875 5.09375 -6.472656 5.5625 -5.984375 C 6.03125 -5.492188 6.265625 -4.75 6.265625 -3.75 Z M 6.265625 -3.75 "/>
</g>
<g id="glyph-3-10">
<path d="M 5.3125 -6.375 L 5.3125 -5.34375 C 5.007812 -5.5 4.691406 -5.613281 4.359375 -5.6875 C 4.035156 -5.769531 3.695312 -5.8125 3.34375 -5.8125 C 2.8125 -5.8125 2.410156 -5.726562 2.140625 -5.5625 C 1.867188 -5.40625 1.734375 -5.160156 1.734375 -4.828125 C 1.734375 -4.578125 1.828125 -4.378906 2.015625 -4.234375 C 2.210938 -4.097656 2.601562 -3.96875 3.1875 -3.84375 L 3.546875 -3.75 C 4.316406 -3.59375 4.863281 -3.363281 5.1875 -3.0625 C 5.507812 -2.757812 5.671875 -2.34375 5.671875 -1.8125 C 5.671875 -1.195312 5.425781 -0.710938 4.9375 -0.359375 C 4.457031 -0.00390625 3.796875 0.171875 2.953125 0.171875 C 2.597656 0.171875 2.226562 0.132812 1.84375 0.0625 C 1.46875 0 1.070312 -0.0976562 0.65625 -0.234375 L 0.65625 -1.359375 C 1.050781 -1.148438 1.441406 -0.992188 1.828125 -0.890625 C 2.210938 -0.785156 2.597656 -0.734375 2.984375 -0.734375 C 3.484375 -0.734375 3.867188 -0.816406 4.140625 -0.984375 C 4.421875 -1.160156 4.5625 -1.410156 4.5625 -1.734375 C 4.5625 -2.023438 4.460938 -2.25 4.265625 -2.40625 C 4.066406 -2.5625 3.632812 -2.710938 2.96875 -2.859375 L 2.59375 -2.9375 C 1.925781 -3.082031 1.441406 -3.300781 1.140625 -3.59375 C 0.847656 -3.882812 0.703125 -4.28125 0.703125 -4.78125 C 0.703125 -5.40625 0.921875 -5.882812 1.359375 -6.21875 C 1.796875 -6.550781 2.414062 -6.71875 3.21875 -6.71875 C 3.613281 -6.71875 3.988281 -6.6875 4.34375 -6.625 C 4.695312 -6.570312 5.019531 -6.488281 5.3125 -6.375 Z M 5.3125 -6.375 "/>
</g>
<g id="glyph-3-11">
<path d="M 6.59375 -3.96875 L 6.59375 0 L 5.515625 0 L 5.515625 -3.921875 C 5.515625 -4.546875 5.390625 -5.007812 5.140625 -5.3125 C 4.898438 -5.625 4.539062 -5.78125 4.0625 -5.78125 C 3.476562 -5.78125 3.015625 -5.59375 2.671875 -5.21875 C 2.335938 -4.851562 2.171875 -4.347656 2.171875 -3.703125 L 2.171875 0 L 1.09375 0 L 1.09375 -9.125 L 2.171875 -9.125 L 2.171875 -5.546875 C 2.429688 -5.941406 2.734375 -6.234375 3.078125 -6.421875 C 3.429688 -6.617188 3.835938 -6.71875 4.296875 -6.71875 C 5.046875 -6.71875 5.613281 -6.484375 6 -6.015625 C 6.394531 -5.554688 6.59375 -4.875 6.59375 -3.96875 Z M 6.59375 -3.96875 "/>
</g>
<g id="glyph-3-12">
<path d="M 3.671875 -5.8125 C 3.097656 -5.8125 2.640625 -5.582031 2.296875 -5.125 C 1.960938 -4.675781 1.796875 -4.0625 1.796875 -3.28125 C 1.796875 -2.488281 1.960938 -1.867188 2.296875 -1.421875 C 2.628906 -0.972656 3.085938 -0.75 3.671875 -0.75 C 4.242188 -0.75 4.695312 -0.972656 5.03125 -1.421875 C 5.375 -1.878906 5.546875 -2.5 5.546875 -3.28125 C 5.546875 -4.050781 5.375 -4.664062 5.03125 -5.125 C 4.695312 -5.582031 4.242188 -5.8125 3.671875 -5.8125 Z M 3.671875 -6.71875 C 4.609375 -6.71875 5.34375 -6.410156 5.875 -5.796875 C 6.414062 -5.191406 6.6875 -4.351562 6.6875 -3.28125 C 6.6875 -2.207031 6.414062 -1.363281 5.875 -0.75 C 5.34375 -0.132812 4.609375 0.171875 3.671875 0.171875 C 2.734375 0.171875 1.992188 -0.132812 1.453125 -0.75 C 0.921875 -1.363281 0.65625 -2.207031 0.65625 -3.28125 C 0.65625 -4.351562 0.921875 -5.191406 1.453125 -5.796875 C 1.992188 -6.410156 2.734375 -6.71875 3.671875 -6.71875 Z M 3.671875 -6.71875 "/>
</g>
<g id="glyph-3-13">
<path d="M 2.203125 -8.421875 L 2.203125 -6.5625 L 4.421875 -6.5625 L 4.421875 -5.71875 L 2.203125 -5.71875 L 2.203125 -2.15625 C 2.203125 -1.625 2.273438 -1.28125 2.421875 -1.125 C 2.566406 -0.976562 2.863281 -0.90625 3.3125 -0.90625 L 4.421875 -0.90625 L 4.421875 0 L 3.3125 0 C 2.476562 0 1.898438 -0.15625 1.578125 -0.46875 C 1.265625 -0.78125 1.109375 -1.34375 1.109375 -2.15625 L 1.109375 -5.71875 L 0.328125 -5.71875 L 0.328125 -6.5625 L 1.109375 -6.5625 L 1.109375 -8.421875 Z M 2.203125 -8.421875 "/>
</g>
<g id="glyph-3-14">
<path d="M 6.59375 -3.96875 L 6.59375 2.5 L 5.515625 2.5 L 5.515625 -3.921875 C 5.515625 -4.546875 5.390625 -5.007812 5.140625 -5.3125 C 4.898438 -5.625 4.539062 -5.78125 4.0625 -5.78125 C 3.476562 -5.78125 3.015625 -5.59375 2.671875 -5.21875 C 2.335938 -4.851562 2.171875 -4.347656 2.171875 -3.703125 L 2.171875 0 L 1.09375 0 L 1.09375 -6.5625 L 2.171875 -6.5625 L 2.171875 -5.546875 C 2.429688 -5.941406 2.734375 -6.234375 3.078125 -6.421875 C 3.429688 -6.617188 3.835938 -6.71875 4.296875 -6.71875 C 5.046875 -6.71875 5.613281 -6.488281 6 -6.03125 C 6.394531 -5.5625 6.59375 -4.875 6.59375 -3.96875 Z M 6.59375 -3.96875 "/>
</g>
<g id="glyph-3-15">
<path d="M 5.859375 -6.3125 L 5.859375 -5.296875 C 5.546875 -5.472656 5.238281 -5.601562 4.9375 -5.6875 C 4.632812 -5.769531 4.328125 -5.8125 4.015625 -5.8125 C 3.304688 -5.8125 2.757812 -5.585938 2.375 -5.140625 C 1.988281 -4.703125 1.796875 -4.082031 1.796875 -3.28125 C 1.796875 -2.476562 1.988281 -1.851562 2.375 -1.40625 C 2.757812 -0.96875 3.304688 -0.75 4.015625 -0.75 C 4.328125 -0.75 4.632812 -0.789062 4.9375 -0.875 C 5.238281 -0.957031 5.546875 -1.082031 5.859375 -1.25 L 5.859375 -0.25 C 5.554688 -0.113281 5.242188 -0.0078125 4.921875 0.0625 C 4.597656 0.132812 4.253906 0.171875 3.890625 0.171875 C 2.898438 0.171875 2.113281 -0.132812 1.53125 -0.75 C 0.945312 -1.375 0.65625 -2.21875 0.65625 -3.28125 C 0.65625 -4.34375 0.945312 -5.179688 1.53125 -5.796875 C 2.125 -6.410156 2.9375 -6.71875 3.96875 -6.71875 C 4.289062 -6.71875 4.609375 -6.679688 4.921875 -6.609375 C 5.242188 -6.546875 5.554688 -6.445312 5.859375 -6.3125 Z M 5.859375 -6.3125 "/>
</g>
<g id="glyph-3-16">
<path d="M 2.359375 -4.171875 L 2.359375 -0.96875 L 4.265625 -0.96875 C 4.898438 -0.96875 5.367188 -1.097656 5.671875 -1.359375 C 5.984375 -1.628906 6.140625 -2.035156 6.140625 -2.578125 C 6.140625 -3.128906 5.984375 -3.53125 5.671875 -3.78125 C 5.367188 -4.039062 4.898438 -4.171875 4.265625 -4.171875 Z M 2.359375 -7.78125 L 2.359375 -5.140625 L 4.109375 -5.140625 C 4.691406 -5.140625 5.125 -5.25 5.40625 -5.46875 C 5.6875 -5.6875 5.828125 -6.015625 5.828125 -6.453125 C 5.828125 -6.898438 5.6875 -7.234375 5.40625 -7.453125 C 5.125 -7.671875 4.691406 -7.78125 4.109375 -7.78125 Z M 1.171875 -8.75 L 4.203125 -8.75 C 5.109375 -8.75 5.800781 -8.5625 6.28125 -8.1875 C 6.769531 -7.8125 7.015625 -7.28125 7.015625 -6.59375 C 7.015625 -6.050781 6.890625 -5.617188 6.640625 -5.296875 C 6.390625 -4.984375 6.023438 -4.789062 5.546875 -4.71875 C 6.128906 -4.59375 6.582031 -4.332031 6.90625 -3.9375 C 7.226562 -3.539062 7.390625 -3.046875 7.390625 -2.453125 C 7.390625 -1.671875 7.125 -1.066406 6.59375 -0.640625 C 6.0625 -0.210938 5.300781 0 4.3125 0 L 1.171875 0 Z M 1.171875 -8.75 "/>
</g>
<g id="glyph-3-17">
<path d="M 1.125 -9.125 L 2.203125 -9.125 L 2.203125 0 L 1.125 0 Z M 1.125 -9.125 "/>
</g>
<g id="glyph-3-18">
<path d="M 1.40625 -1.484375 L 2.640625 -1.484375 L 2.640625 -0.484375 L 1.6875 1.390625 L 0.921875 1.390625 L 1.40625 -0.484375 Z M 1.40625 -1.484375 "/>
</g>
<g id="glyph-3-19">
<path d="M 4.953125 -3.046875 L 4.703125 -4.40625 C 4.523438 -5.332031 4.085938 -5.796875 3.390625 -5.796875 C 2.867188 -5.796875 2.488281 -5.582031 2.25 -5.15625 C 1.945312 -4.613281 1.796875 -3.988281 1.796875 -3.28125 C 1.796875 -2.414062 1.941406 -1.78125 2.234375 -1.375 C 2.535156 -0.957031 2.921875 -0.75 3.390625 -0.75 C 3.910156 -0.75 4.3125 -1.164062 4.59375 -2 Z M 5.5625 -4.84375 L 6.140625 -6.5625 L 7.109375 -6.5625 L 5.90625 -3 L 6.140625 -1.71875 C 6.171875 -1.53125 6.253906 -1.359375 6.390625 -1.203125 C 6.554688 -1.015625 6.703125 -0.921875 6.828125 -0.921875 L 7.34375 -0.921875 L 7.34375 0 L 6.6875 0 C 6.320312 0 5.976562 -0.164062 5.65625 -0.5 C 5.488281 -0.65625 5.375 -0.90625 5.3125 -1.25 C 5.132812 -0.820312 4.859375 -0.4375 4.484375 -0.09375 C 4.316406 0.0625 3.953125 0.140625 3.390625 0.140625 C 2.472656 0.140625 1.789062 -0.15625 1.34375 -0.75 C 0.882812 -1.363281 0.65625 -2.207031 0.65625 -3.28125 C 0.65625 -4.425781 0.90625 -5.269531 1.40625 -5.8125 C 1.957031 -6.40625 2.617188 -6.703125 3.390625 -6.703125 C 4.609375 -6.703125 5.332031 -6.082031 5.5625 -4.84375 Z M 5.5625 -4.84375 "/>
</g>
<g id="glyph-4-0">
<path d="M 1.171875 -8.75 L 6.703125 -8.75 L 6.703125 -7.75 L 2.359375 -7.75 L 2.359375 -5.15625 L 6.53125 -5.15625 L 6.53125 -4.171875 L 2.359375 -4.171875 L 2.359375 -1 L 6.8125 -1 L 6.8125 0 L 1.171875 0 Z M 1.171875 -8.75 "/>
</g>
<g id="glyph-4-1">
<path d="M 3.4375 0 L 0.09375 -8.75 L 1.328125 -8.75 L 4.109375 -1.390625 L 6.875 -8.75 L 8.109375 -8.75 L 4.78125 0 Z M 3.4375 0 "/>
</g>
<g id="glyph-5-0">
<path d="M 6.1875 -3.25 L 6.1875 -2.765625 L 1.640625 -2.765625 C 1.679688 -2.085938 1.882812 -1.570312 2.25 -1.21875 C 2.613281 -0.863281 3.125 -0.6875 3.78125 -0.6875 C 4.164062 -0.6875 4.535156 -0.734375 4.890625 -0.828125 C 5.242188 -0.921875 5.597656 -1.054688 5.953125 -1.234375 L 5.953125 -0.3125 C 5.597656 -0.15625 5.234375 -0.0390625 4.859375 0.03125 C 4.484375 0.113281 4.109375 0.15625 3.734375 0.15625 C 2.765625 0.15625 2 -0.117188 1.4375 -0.671875 C 0.882812 -1.234375 0.609375 -1.992188 0.609375 -2.953125 C 0.609375 -3.929688 0.875 -4.707031 1.40625 -5.28125 C 1.9375 -5.863281 2.65625 -6.15625 3.5625 -6.15625 C 4.363281 -6.15625 5 -5.894531 5.46875 -5.375 C 5.945312 -4.851562 6.1875 -4.144531 6.1875 -3.25 Z M 5.1875 -3.546875 C 5.1875 -4.085938 5.035156 -4.519531 4.734375 -4.84375 C 4.441406 -5.164062 4.050781 -5.328125 3.5625 -5.328125 C 3.007812 -5.328125 2.566406 -5.171875 2.234375 -4.859375 C 1.910156 -4.546875 1.722656 -4.109375 1.671875 -3.546875 Z M 5.1875 -3.546875 "/>
</g>
<g id="glyph-5-1">
<path d="M 1.03125 -8.359375 L 2.03125 -8.359375 L 2.03125 0 L 1.03125 0 Z M 1.03125 -8.359375 "/>
</g>
<g id="glyph-5-2">
<path d="M 3.765625 -3.03125 C 2.972656 -3.03125 2.421875 -2.9375 2.109375 -2.75 C 1.804688 -2.5625 1.65625 -2.25 1.65625 -1.8125 C 1.65625 -1.46875 1.769531 -1.191406 2 -0.984375 C 2.226562 -0.773438 2.539062 -0.671875 2.9375 -0.671875 C 3.488281 -0.671875 3.925781 -0.863281 4.25 -1.25 C 4.582031 -1.644531 4.75 -2.160156 4.75 -2.796875 L 4.75 -3.03125 Z M 5.734375 -3.4375 L 5.734375 0 L 4.75 0 L 4.75 -0.90625 C 4.53125 -0.539062 4.25 -0.269531 3.90625 -0.09375 C 3.570312 0.0703125 3.160156 0.15625 2.671875 0.15625 C 2.054688 0.15625 1.566406 -0.015625 1.203125 -0.359375 C 0.835938 -0.703125 0.65625 -1.164062 0.65625 -1.75 C 0.65625 -2.425781 0.878906 -2.9375 1.328125 -3.28125 C 1.785156 -3.625 2.46875 -3.796875 3.375 -3.796875 L 4.75 -3.796875 L 4.75 -3.890625 C 4.75 -4.347656 4.597656 -4.703125 4.296875 -4.953125 C 4.003906 -5.203125 3.585938 -5.328125 3.046875 -5.328125 C 2.703125 -5.328125 2.363281 -5.285156 2.03125 -5.203125 C 1.707031 -5.117188 1.394531 -4.992188 1.09375 -4.828125 L 1.09375 -5.734375 C 1.457031 -5.878906 1.8125 -5.984375 2.15625 -6.046875 C 2.5 -6.117188 2.828125 -6.15625 3.140625 -6.15625 C 4.015625 -6.15625 4.664062 -5.929688 5.09375 -5.484375 C 5.519531 -5.035156 5.734375 -4.351562 5.734375 -3.4375 Z M 5.734375 -3.4375 "/>
</g>
<g id="glyph-5-3">
<path d="M 4.875 -5.84375 L 4.875 -4.90625 C 4.59375 -5.050781 4.300781 -5.15625 4 -5.21875 C 3.695312 -5.289062 3.382812 -5.328125 3.0625 -5.328125 C 2.570312 -5.328125 2.203125 -5.25 1.953125 -5.09375 C 1.710938 -4.945312 1.59375 -4.726562 1.59375 -4.4375 C 1.59375 -4.207031 1.679688 -4.023438 1.859375 -3.890625 C 2.035156 -3.765625 2.390625 -3.640625 2.921875 -3.515625 L 3.25 -3.4375 C 3.957031 -3.289062 4.457031 -3.078125 4.75 -2.796875 C 5.039062 -2.523438 5.1875 -2.144531 5.1875 -1.65625 C 5.1875 -1.101562 4.96875 -0.660156 4.53125 -0.328125 C 4.09375 -0.00390625 3.484375 0.15625 2.703125 0.15625 C 2.378906 0.15625 2.039062 0.125 1.6875 0.0625 C 1.34375 0 0.976562 -0.09375 0.59375 -0.21875 L 0.59375 -1.234375 C 0.957031 -1.046875 1.316406 -0.90625 1.671875 -0.8125 C 2.023438 -0.71875 2.378906 -0.671875 2.734375 -0.671875 C 3.191406 -0.671875 3.546875 -0.75 3.796875 -0.90625 C 4.046875 -1.070312 4.171875 -1.296875 4.171875 -1.578125 C 4.171875 -1.847656 4.082031 -2.054688 3.90625 -2.203125 C 3.726562 -2.347656 3.332031 -2.484375 2.71875 -2.609375 L 2.375 -2.703125 C 1.757812 -2.828125 1.316406 -3.019531 1.046875 -3.28125 C 0.773438 -3.550781 0.640625 -3.921875 0.640625 -4.390625 C 0.640625 -4.953125 0.835938 -5.382812 1.234375 -5.6875 C 1.640625 -6 2.210938 -6.15625 2.953125 -6.15625 C 3.316406 -6.15625 3.660156 -6.128906 3.984375 -6.078125 C 4.304688 -6.023438 4.601562 -5.945312 4.875 -5.84375 Z M 4.875 -5.84375 "/>
</g>
<g id="glyph-5-4">
<path d="M 2.015625 -7.71875 L 2.015625 -6.015625 L 4.046875 -6.015625 L 4.046875 -5.25 L 2.015625 -5.25 L 2.015625 -1.984375 C 2.015625 -1.492188 2.082031 -1.175781 2.21875 -1.03125 C 2.351562 -0.894531 2.625 -0.828125 3.03125 -0.828125 L 4.046875 -0.828125 L 4.046875 0 L 3.03125 0 C 2.269531 0 1.742188 -0.140625 1.453125 -0.421875 C 1.160156 -0.710938 1.015625 -1.234375 1.015625 -1.984375 L 1.015625 -5.25 L 0.296875 -5.25 L 0.296875 -6.015625 L 1.015625 -6.015625 L 1.015625 -7.71875 Z M 2.015625 -7.71875 "/>
</g>
<g id="glyph-5-5">
<path d="M 1.03125 -6.015625 L 2.03125 -6.015625 L 2.03125 0 L 1.03125 0 Z M 1.03125 -8.359375 L 2.03125 -8.359375 L 2.03125 -7.109375 L 1.03125 -7.109375 Z M 1.03125 -8.359375 "/>
</g>
<g id="glyph-5-6">
<path d="M 5.359375 -5.78125 L 5.359375 -4.859375 C 5.085938 -5.015625 4.8125 -5.128906 4.53125 -5.203125 C 4.25 -5.285156 3.960938 -5.328125 3.671875 -5.328125 C 3.035156 -5.328125 2.539062 -5.125 2.1875 -4.71875 C 1.832031 -4.3125 1.65625 -3.738281 1.65625 -3 C 1.65625 -2.269531 1.832031 -1.703125 2.1875 -1.296875 C 2.539062 -0.890625 3.035156 -0.6875 3.671875 -0.6875 C 3.960938 -0.6875 4.25 -0.722656 4.53125 -0.796875 C 4.8125 -0.867188 5.085938 -0.984375 5.359375 -1.140625 L 5.359375 -0.234375 C 5.085938 -0.0976562 4.800781 0 4.5 0.0625 C 4.207031 0.125 3.894531 0.15625 3.5625 0.15625 C 2.65625 0.15625 1.9375 -0.125 1.40625 -0.6875 C 0.875 -1.257812 0.609375 -2.03125 0.609375 -3 C 0.609375 -3.976562 0.875 -4.75 1.40625 -5.3125 C 1.945312 -5.875 2.6875 -6.15625 3.625 -6.15625 C 3.9375 -6.15625 4.234375 -6.125 4.515625 -6.0625 C 4.804688 -6 5.085938 -5.90625 5.359375 -5.78125 Z M 5.359375 -5.78125 "/>
</g>
<g id="glyph-5-7">
</g>
<g id="glyph-5-8">
<path d="M 1.171875 -4.5 L 2.3125 -4.5 L 2.3125 -3.140625 L 1.171875 -3.140625 Z M 1.171875 -4.5 "/>
</g>
<g id="glyph-5-9">
<path d="M 0.328125 -6.015625 L 1.375 -6.015625 L 3.25 -0.96875 L 5.140625 -6.015625 L 6.1875 -6.015625 L 3.921875 0 L 2.578125 0 Z M 0.328125 -6.015625 "/>
</g>
<g id="glyph-5-10">
<path d="M 3.375 -5.328125 C 2.84375 -5.328125 2.421875 -5.117188 2.109375 -4.703125 C 1.804688 -4.285156 1.65625 -3.71875 1.65625 -3 C 1.65625 -2.28125 1.804688 -1.710938 2.109375 -1.296875 C 2.410156 -0.890625 2.832031 -0.6875 3.375 -0.6875 C 3.894531 -0.6875 4.304688 -0.890625 4.609375 -1.296875 C 4.921875 -1.710938 5.078125 -2.28125 5.078125 -3 C 5.078125 -3.71875 4.921875 -4.285156 4.609375 -4.703125 C 4.304688 -5.117188 3.894531 -5.328125 3.375 -5.328125 Z M 3.375 -6.15625 C 4.226562 -6.15625 4.898438 -5.875 5.390625 -5.3125 C 5.878906 -4.757812 6.125 -3.988281 6.125 -3 C 6.125 -2.019531 5.878906 -1.25 5.390625 -0.6875 C 4.898438 -0.125 4.226562 0.15625 3.375 0.15625 C 2.507812 0.15625 1.832031 -0.125 1.34375 -0.6875 C 0.851562 -1.25 0.609375 -2.019531 0.609375 -3 C 0.609375 -3.988281 0.851562 -4.757812 1.34375 -5.3125 C 1.832031 -5.875 2.507812 -6.15625 3.375 -6.15625 Z M 3.375 -6.15625 "/>
</g>
<g id="glyph-5-11">
<path d="M 0.9375 -2.375 L 0.9375 -6.015625 L 1.921875 -6.015625 L 1.921875 -2.40625 C 1.921875 -1.84375 2.03125 -1.414062 2.25 -1.125 C 2.476562 -0.84375 2.8125 -0.703125 3.25 -0.703125 C 3.789062 -0.703125 4.210938 -0.867188 4.515625 -1.203125 C 4.828125 -1.546875 4.984375 -2.015625 4.984375 -2.609375 L 4.984375 -6.015625 L 5.96875 -6.015625 L 5.96875 0 L 4.984375 0 L 4.984375 -0.921875 C 4.742188 -0.554688 4.460938 -0.285156 4.140625 -0.109375 C 3.828125 0.0664062 3.460938 0.15625 3.046875 0.15625 C 2.359375 0.15625 1.832031 -0.0546875 1.46875 -0.484375 C 1.113281 -0.921875 0.9375 -1.550781 0.9375 -2.375 Z M 3.421875 -6.15625 Z M 3.421875 -6.15625 "/>
</g>
<g id="glyph-5-12">
<path d="M 2 -0.90625 L 2 2.28125 L 1 2.28125 L 1 -6.015625 L 2 -6.015625 L 2 -5.109375 C 2.195312 -5.460938 2.453125 -5.722656 2.765625 -5.890625 C 3.085938 -6.066406 3.472656 -6.15625 3.921875 -6.15625 C 4.648438 -6.15625 5.238281 -5.863281 5.6875 -5.28125 C 6.144531 -4.707031 6.375 -3.945312 6.375 -3 C 6.375 -2.050781 6.144531 -1.285156 5.6875 -0.703125 C 5.238281 -0.128906 4.648438 0.15625 3.921875 0.15625 C 3.472656 0.15625 3.085938 0.0703125 2.765625 -0.09375 C 2.453125 -0.269531 2.195312 -0.539062 2 -0.90625 Z M 5.359375 -3 C 5.359375 -3.726562 5.207031 -4.296875 4.90625 -4.703125 C 4.601562 -5.117188 4.191406 -5.328125 3.671875 -5.328125 C 3.148438 -5.328125 2.738281 -5.117188 2.4375 -4.703125 C 2.144531 -4.296875 2 -3.726562 2 -3 C 2 -2.269531 2.144531 -1.695312 2.4375 -1.28125 C 2.738281 -0.875 3.148438 -0.671875 3.671875 -0.671875 C 4.191406 -0.671875 4.601562 -0.875 4.90625 -1.28125 C 5.207031 -1.695312 5.359375 -2.269531 5.359375 -3 Z M 5.359375 -3 "/>
</g>
<g id="glyph-5-13">
<path d="M 4.515625 -5.09375 C 4.410156 -5.15625 4.289062 -5.203125 4.15625 -5.234375 C 4.03125 -5.265625 3.890625 -5.28125 3.734375 -5.28125 C 3.171875 -5.28125 2.738281 -5.097656 2.4375 -4.734375 C 2.144531 -4.367188 2 -3.847656 2 -3.171875 L 2 0 L 1 0 L 1 -6.015625 L 2 -6.015625 L 2 -5.078125 C 2.195312 -5.441406 2.460938 -5.710938 2.796875 -5.890625 C 3.128906 -6.066406 3.535156 -6.15625 4.015625 -6.15625 C 4.085938 -6.15625 4.160156 -6.148438 4.234375 -6.140625 C 4.316406 -6.140625 4.410156 -6.128906 4.515625 -6.109375 Z M 4.515625 -5.09375 "/>
</g>
<g id="glyph-5-14">
<path d="M 5.359375 -3 C 5.359375 -3.726562 5.207031 -4.296875 4.90625 -4.703125 C 4.601562 -5.117188 4.191406 -5.328125 3.671875 -5.328125 C 3.148438 -5.328125 2.738281 -5.117188 2.4375 -4.703125 C 2.144531 -4.296875 2 -3.726562 2 -3 C 2 -2.269531 2.144531 -1.695312 2.4375 -1.28125 C 2.738281 -0.875 3.148438 -0.671875 3.671875 -0.671875 C 4.191406 -0.671875 4.601562 -0.875 4.90625 -1.28125 C 5.207031 -1.695312 5.359375 -2.269531 5.359375 -3 Z M 2 -5.109375 C 2.195312 -5.460938 2.453125 -5.722656 2.765625 -5.890625 C 3.085938 -6.066406 3.472656 -6.15625 3.921875 -6.15625 C 4.648438 -6.15625 5.238281 -5.863281 5.6875 -5.28125 C 6.144531 -4.707031 6.375 -3.945312 6.375 -3 C 6.375 -2.050781 6.144531 -1.285156 5.6875 -0.703125 C 5.238281 -0.128906 4.648438 0.15625 3.921875 0.15625 C 3.472656 0.15625 3.085938 0.0703125 2.765625 -0.09375 C 2.453125 -0.269531 2.195312 -0.539062 2 -0.90625 L 2 0 L 1 0 L 1 -8.359375 L 2 -8.359375 Z M 2 -5.109375 "/>
</g>
<g id="glyph-5-15">
<path d="M 1.171875 -1.359375 L 2.3125 -1.359375 L 2.3125 0 L 1.171875 0 Z M 1.171875 -1.359375 "/>
</g>
<g id="glyph-5-16">
<path d="M -0.03125 -8.015625 L 6.75 -8.015625 L 6.75 -7.109375 L 3.90625 -7.109375 L 3.90625 0 L 2.8125 0 L 2.8125 -7.109375 L -0.03125 -7.109375 Z M -0.03125 -8.015625 "/>
</g>
<g id="glyph-5-17">
<path d="M 6.03125 -3.625 L 6.03125 0 L 5.046875 0 L 5.046875 -3.59375 C 5.046875 -4.164062 4.9375 -4.59375 4.71875 -4.875 C 4.5 -5.15625 4.164062 -5.296875 3.71875 -5.296875 C 3.1875 -5.296875 2.765625 -5.125 2.453125 -4.78125 C 2.148438 -4.445312 2 -3.988281 2 -3.40625 L 2 0 L 1 0 L 1 -8.359375 L 2 -8.359375 L 2 -5.078125 C 2.226562 -5.441406 2.503906 -5.710938 2.828125 -5.890625 C 3.148438 -6.066406 3.519531 -6.15625 3.9375 -6.15625 C 4.625 -6.15625 5.144531 -5.941406 5.5 -5.515625 C 5.851562 -5.085938 6.03125 -4.457031 6.03125 -3.625 Z M 6.03125 -3.625 "/>
</g>
<g id="glyph-5-18">
<path d="M 5 -5.109375 L 5 -8.359375 L 5.984375 -8.359375 L 5.984375 0 L 5 0 L 5 -0.90625 C 4.789062 -0.539062 4.523438 -0.269531 4.203125 -0.09375 C 3.890625 0.0703125 3.507812 0.15625 3.0625 0.15625 C 2.34375 0.15625 1.753906 -0.128906 1.296875 -0.703125 C 0.835938 -1.285156 0.609375 -2.050781 0.609375 -3 C 0.609375 -3.945312 0.835938 -4.707031 1.296875 -5.28125 C 1.753906 -5.863281 2.34375 -6.15625 3.0625 -6.15625 C 3.507812 -6.15625 3.890625 -6.066406 4.203125 -5.890625 C 4.523438 -5.722656 4.789062 -5.460938 5 -5.109375 Z M 1.625 -3 C 1.625 -2.269531 1.773438 -1.695312 2.078125 -1.28125 C 2.378906 -0.875 2.789062 -0.671875 3.3125 -0.671875 C 3.832031 -0.671875 4.242188 -0.875 4.546875 -1.28125 C 4.847656 -1.695312 5 -2.269531 5 -3 C 5 -3.726562 4.847656 -4.296875 4.546875 -4.703125 C 4.242188 -5.117188 3.832031 -5.328125 3.3125 -5.328125 C 2.789062 -5.328125 2.378906 -5.117188 2.078125 -4.703125 C 1.773438 -4.296875 1.625 -3.726562 1.625 -3 Z M 1.625 -3 "/>
</g>
<g id="glyph-5-19">
<path d="M 6.03125 -3.625 L 6.03125 0 L 5.046875 0 L 5.046875 -3.59375 C 5.046875 -4.164062 4.9375 -4.59375 4.71875 -4.875 C 4.5 -5.15625 4.164062 -5.296875 3.71875 -5.296875 C 3.1875 -5.296875 2.765625 -5.125 2.453125 -4.78125 C 2.148438 -4.445312 2 -3.988281 2 -3.40625 L 2 0 L 1 0 L 1 -6.015625 L 2 -6.015625 L 2 -5.078125 C 2.226562 -5.441406 2.503906 -5.710938 2.828125 -5.890625 C 3.148438 -6.066406 3.519531 -6.15625 3.9375 -6.15625 C 4.625 -6.15625 5.144531 -5.941406 5.5 -5.515625 C 5.851562 -5.085938 6.03125 -4.457031 6.03125 -3.625 Z M 6.03125 -3.625 "/>
</g>
<g id="glyph-5-20">
<path d="M 5 -3.078125 C 5 -3.796875 4.847656 -4.347656 4.546875 -4.734375 C 4.253906 -5.128906 3.84375 -5.328125 3.3125 -5.328125 C 2.78125 -5.328125 2.363281 -5.128906 2.0625 -4.734375 C 1.769531 -4.347656 1.625 -3.796875 1.625 -3.078125 C 1.625 -2.367188 1.769531 -1.816406 2.0625 -1.421875 C 2.363281 -1.023438 2.78125 -0.828125 3.3125 -0.828125 C 3.84375 -0.828125 4.253906 -1.023438 4.546875 -1.421875 C 4.847656 -1.816406 5 -2.367188 5 -3.078125 Z M 5.984375 -0.75 C 5.984375 0.28125 5.753906 1.039062 5.296875 1.53125 C 4.847656 2.03125 4.15625 2.28125 3.21875 2.28125 C 2.863281 2.28125 2.53125 2.253906 2.21875 2.203125 C 1.914062 2.148438 1.617188 2.070312 1.328125 1.96875 L 1.328125 1.015625 C 1.617188 1.171875 1.90625 1.285156 2.1875 1.359375 C 2.46875 1.429688 2.757812 1.46875 3.0625 1.46875 C 3.707031 1.46875 4.191406 1.296875 4.515625 0.953125 C 4.835938 0.617188 5 0.113281 5 -0.5625 L 5 -1.0625 C 4.789062 -0.707031 4.523438 -0.441406 4.203125 -0.265625 C 3.890625 -0.0859375 3.507812 0 3.0625 0 C 2.320312 0 1.726562 -0.28125 1.28125 -0.84375 C 0.832031 -1.40625 0.609375 -2.148438 0.609375 -3.078125 C 0.609375 -4.003906 0.832031 -4.75 1.28125 -5.3125 C 1.726562 -5.875 2.320312 -6.15625 3.0625 -6.15625 C 3.507812 -6.15625 3.890625 -6.066406 4.203125 -5.890625 C 4.523438 -5.722656 4.789062 -5.460938 5 -5.109375 L 5 -6.015625 L 5.984375 -6.015625 Z M 5.984375 -0.75 "/>
</g>
<g id="glyph-5-21">
<path d="M 1.296875 -1.359375 L 2.421875 -1.359375 L 2.421875 -0.4375 L 1.546875 1.28125 L 0.84375 1.28125 L 1.296875 -0.4375 Z M 1.296875 -1.359375 "/>
</g>
<g id="glyph-5-22">
<path d="M 5.890625 -7.75 L 5.890625 -6.703125 C 5.472656 -6.898438 5.082031 -7.046875 4.71875 -7.140625 C 4.351562 -7.234375 4 -7.28125 3.65625 -7.28125 C 3.070312 -7.28125 2.617188 -7.164062 2.296875 -6.9375 C 1.972656 -6.707031 1.8125 -6.382812 1.8125 -5.96875 C 1.8125 -5.613281 1.914062 -5.34375 2.125 -5.15625 C 2.34375 -4.976562 2.75 -4.832031 3.34375 -4.71875 L 4 -4.59375 C 4.8125 -4.4375 5.410156 -4.160156 5.796875 -3.765625 C 6.179688 -3.378906 6.375 -2.863281 6.375 -2.21875 C 6.375 -1.4375 6.113281 -0.84375 5.59375 -0.4375 C 5.070312 -0.0390625 4.304688 0.15625 3.296875 0.15625 C 2.921875 0.15625 2.515625 0.109375 2.078125 0.015625 C 1.648438 -0.0664062 1.207031 -0.191406 0.75 -0.359375 L 0.75 -1.46875 C 1.195312 -1.21875 1.628906 -1.03125 2.046875 -0.90625 C 2.472656 -0.78125 2.890625 -0.71875 3.296875 -0.71875 C 3.921875 -0.71875 4.398438 -0.835938 4.734375 -1.078125 C 5.066406 -1.328125 5.234375 -1.675781 5.234375 -2.125 C 5.234375 -2.519531 5.113281 -2.828125 4.875 -3.046875 C 4.632812 -3.273438 4.238281 -3.445312 3.6875 -3.5625 L 3.03125 -3.6875 C 2.21875 -3.84375 1.628906 -4.09375 1.265625 -4.4375 C 0.898438 -4.78125 0.71875 -5.257812 0.71875 -5.875 C 0.71875 -6.582031 0.96875 -7.140625 1.46875 -7.546875 C 1.96875 -7.960938 2.660156 -8.171875 3.546875 -8.171875 C 3.921875 -8.171875 4.300781 -8.132812 4.6875 -8.0625 C 5.082031 -7.988281 5.484375 -7.882812 5.890625 -7.75 Z M 5.890625 -7.75 "/>
</g>
<g id="glyph-5-23">
<path d="M 0.53125 -3.453125 L 3.4375 -3.453125 L 3.4375 -2.578125 L 0.53125 -2.578125 Z M 0.53125 -3.453125 "/>
</g>
<g id="glyph-5-24">
<path d="M 2.171875 -3.828125 L 2.171875 -0.890625 L 3.90625 -0.890625 C 4.488281 -0.890625 4.921875 -1.007812 5.203125 -1.25 C 5.484375 -1.488281 5.625 -1.859375 5.625 -2.359375 C 5.625 -2.859375 5.484375 -3.226562 5.203125 -3.46875 C 4.921875 -3.707031 4.488281 -3.828125 3.90625 -3.828125 Z M 2.171875 -7.125 L 2.171875 -4.703125 L 3.765625 -4.703125 C 4.296875 -4.703125 4.691406 -4.800781 4.953125 -5 C 5.210938 -5.207031 5.34375 -5.515625 5.34375 -5.921875 C 5.34375 -6.328125 5.210938 -6.628906 4.953125 -6.828125 C 4.691406 -7.023438 4.296875 -7.125 3.765625 -7.125 Z M 1.078125 -8.015625 L 3.84375 -8.015625 C 4.675781 -8.015625 5.316406 -7.84375 5.765625 -7.5 C 6.210938 -7.15625 6.4375 -6.664062 6.4375 -6.03125 C 6.4375 -5.539062 6.320312 -5.148438 6.09375 -4.859375 C 5.863281 -4.578125 5.523438 -4.398438 5.078125 -4.328125 C 5.609375 -4.210938 6.019531 -3.972656 6.3125 -3.609375 C 6.613281 -3.242188 6.765625 -2.789062 6.765625 -2.25 C 6.765625 -1.53125 6.519531 -0.972656 6.03125 -0.578125 C 5.550781 -0.191406 4.859375 0 3.953125 0 L 1.078125 0 Z M 1.078125 -8.015625 "/>
</g>
<g id="glyph-5-25">
<path d="M 5.71875 -4.859375 C 5.96875 -5.304688 6.265625 -5.632812 6.609375 -5.84375 C 6.953125 -6.050781 7.359375 -6.15625 7.828125 -6.15625 C 8.453125 -6.15625 8.929688 -5.9375 9.265625 -5.5 C 9.609375 -5.0625 9.78125 -4.4375 9.78125 -3.625 L 9.78125 0 L 8.78125 0 L 8.78125 -3.59375 C 8.78125 -4.175781 8.675781 -4.601562 8.46875 -4.875 C 8.269531 -5.15625 7.960938 -5.296875 7.546875 -5.296875 C 7.035156 -5.296875 6.628906 -5.125 6.328125 -4.78125 C 6.035156 -4.445312 5.890625 -3.988281 5.890625 -3.40625 L 5.890625 0 L 4.890625 0 L 4.890625 -3.59375 C 4.890625 -4.175781 4.785156 -4.601562 4.578125 -4.875 C 4.378906 -5.15625 4.066406 -5.296875 3.640625 -5.296875 C 3.140625 -5.296875 2.738281 -5.125 2.4375 -4.78125 C 2.144531 -4.445312 2 -3.988281 2 -3.40625 L 2 0 L 1 0 L 1 -6.015625 L 2 -6.015625 L 2 -5.078125 C 2.21875 -5.453125 2.484375 -5.722656 2.796875 -5.890625 C 3.117188 -6.066406 3.492188 -6.15625 3.921875 -6.15625 C 4.359375 -6.15625 4.726562 -6.046875 5.03125 -5.828125 C 5.34375 -5.609375 5.570312 -5.285156 5.71875 -4.859375 Z M 5.71875 -4.859375 "/>
</g>
<g id="glyph-5-26">
<path d="M 4.078125 -8.359375 L 4.078125 -7.53125 L 3.140625 -7.53125 C 2.785156 -7.53125 2.535156 -7.457031 2.390625 -7.3125 C 2.253906 -7.175781 2.1875 -6.921875 2.1875 -6.546875 L 2.1875 -6.015625 L 3.8125 -6.015625 L 3.8125 -5.25 L 2.1875 -5.25 L 2.1875 0 L 1.203125 0 L 1.203125 -5.25 L 0.25 -5.25 L 0.25 -6.015625 L 1.203125 -6.015625 L 1.203125 -6.4375 C 1.203125 -7.101562 1.351562 -7.585938 1.65625 -7.890625 C 1.96875 -8.203125 2.460938 -8.359375 3.140625 -8.359375 Z M 4.078125 -8.359375 "/>
</g>
<g id="glyph-5-27">
<path d="M 0.53125 -3.40625 L 10.46875 -3.40625 L 10.46875 -2.625 L 0.53125 -2.625 Z M 0.53125 -3.40625 "/>
</g>
<g id="glyph-5-28">
<path d="M 1.03125 -6.015625 L 2.03125 -6.015625 L 2.03125 0.109375 C 2.03125 0.867188 1.882812 1.421875 1.59375 1.765625 C 1.300781 2.109375 0.828125 2.28125 0.171875 2.28125 L -0.203125 2.28125 L -0.203125 1.453125 L 0.0625 1.453125 C 0.4375 1.453125 0.691406 1.363281 0.828125 1.1875 C 0.960938 1.007812 1.03125 0.648438 1.03125 0.109375 Z M 1.03125 -8.359375 L 2.03125 -8.359375 L 2.03125 -7.109375 L 1.03125 -7.109375 Z M 1.03125 -8.359375 "/>
</g>
<g id="glyph-5-29">
<path d="M 0.46875 -6.015625 L 1.453125 -6.015625 L 2.6875 -1.328125 L 3.921875 -6.015625 L 5.078125 -6.015625 L 6.3125 -1.328125 L 7.546875 -6.015625 L 8.53125 -6.015625 L 6.96875 0 L 5.796875 0 L 4.5 -4.9375 L 3.203125 0 L 2.03125 0 Z M 0.46875 -6.015625 "/>
</g>
<g id="glyph-5-30">
<path d="M 1.296875 -1.359375 L 2.421875 -1.359375 L 2.421875 0 L 1.296875 0 Z M 1.296875 -5.6875 L 2.421875 -5.6875 L 2.421875 -4.328125 L 1.296875 -4.328125 Z M 1.296875 -5.6875 "/>
</g>
<g id="glyph-5-31">
<path d="M 6.03125 -6.015625 L 3.859375 -3.09375 L 6.15625 0 L 4.984375 0 L 3.234375 -2.359375 L 1.484375 0 L 0.3125 0 L 2.65625 -3.140625 L 0.515625 -6.015625 L 1.6875 -6.015625 L 3.28125 -3.875 L 4.875 -6.015625 Z M 6.03125 -6.015625 "/>
</g>
<g id="glyph-5-32">
<path d="M 4.546875 -2.796875 L 4.3125 -4.046875 C 4.144531 -4.890625 3.742188 -5.3125 3.109375 -5.3125 C 2.628906 -5.3125 2.28125 -5.113281 2.0625 -4.71875 C 1.789062 -4.226562 1.65625 -3.65625 1.65625 -3 C 1.65625 -2.21875 1.785156 -1.632812 2.046875 -1.25 C 2.316406 -0.875 2.671875 -0.6875 3.109375 -0.6875 C 3.585938 -0.6875 3.957031 -1.066406 4.21875 -1.828125 Z M 5.09375 -4.4375 L 5.625 -6.015625 L 6.515625 -6.015625 L 5.40625 -2.75 L 5.625 -1.578125 C 5.65625 -1.398438 5.734375 -1.238281 5.859375 -1.09375 C 6.003906 -0.925781 6.132812 -0.84375 6.25 -0.84375 L 6.71875 -0.84375 L 6.71875 0 L 6.140625 0 C 5.796875 0 5.472656 -0.148438 5.171875 -0.453125 C 5.023438 -0.597656 4.921875 -0.832031 4.859375 -1.15625 C 4.703125 -0.75 4.453125 -0.394531 4.109375 -0.09375 C 3.953125 0.0625 3.617188 0.140625 3.109375 0.140625 C 2.265625 0.140625 1.640625 -0.132812 1.234375 -0.6875 C 0.816406 -1.25 0.609375 -2.019531 0.609375 -3 C 0.609375 -4.050781 0.835938 -4.828125 1.296875 -5.328125 C 1.796875 -5.878906 2.398438 -6.15625 3.109375 -6.15625 C 4.222656 -6.15625 4.882812 -5.582031 5.09375 -4.4375 Z M 5.09375 -4.4375 "/>
</g>
<g id="glyph-5-33">
<path d="M 1.171875 -5 L 8.046875 -5 L 8.046875 -4.09375 L 1.171875 -4.09375 Z M 1.171875 -2.796875 L 8.046875 -2.796875 L 8.046875 -1.890625 L 1.171875 -1.890625 Z M 1.171875 -2.796875 "/>
</g>
<g id="glyph-5-34">
<path d="M 3.5 -7.3125 C 2.9375 -7.3125 2.515625 -7.035156 2.234375 -6.484375 C 1.953125 -5.929688 1.8125 -5.101562 1.8125 -4 C 1.8125 -2.90625 1.953125 -2.082031 2.234375 -1.53125 C 2.515625 -0.976562 2.9375 -0.703125 3.5 -0.703125 C 4.0625 -0.703125 4.484375 -0.976562 4.765625 -1.53125 C 5.046875 -2.082031 5.1875 -2.90625 5.1875 -4 C 5.1875 -5.101562 5.046875 -5.929688 4.765625 -6.484375 C 4.484375 -7.035156 4.0625 -7.3125 3.5 -7.3125 Z M 3.5 -8.171875 C 4.394531 -8.171875 5.078125 -7.8125 5.546875 -7.09375 C 6.023438 -6.382812 6.265625 -5.351562 6.265625 -4 C 6.265625 -2.65625 6.023438 -1.625 5.546875 -0.90625 C 5.078125 -0.195312 4.394531 0.15625 3.5 0.15625 C 2.601562 0.15625 1.914062 -0.195312 1.4375 -0.90625 C 0.957031 -1.625 0.71875 -2.65625 0.71875 -4 C 0.71875 -5.351562 0.957031 -6.382812 1.4375 -7.09375 C 1.914062 -7.8125 2.601562 -8.171875 3.5 -8.171875 Z M 3.5 -8.171875 "/>
</g>
<g id="glyph-5-35">
<path d="M 3.40625 -8.34375 C 2.925781 -7.519531 2.570312 -6.703125 2.34375 -5.890625 C 2.113281 -5.085938 2 -4.273438 2 -3.453125 C 2 -2.628906 2.113281 -1.8125 2.34375 -1 C 2.582031 -0.1875 2.9375 0.628906 3.40625 1.453125 L 2.546875 1.453125 C 2.015625 0.609375 1.613281 -0.21875 1.34375 -1.03125 C 1.082031 -1.84375 0.953125 -2.648438 0.953125 -3.453125 C 0.953125 -4.253906 1.082031 -5.054688 1.34375 -5.859375 C 1.601562 -6.671875 2.003906 -7.5 2.546875 -8.34375 Z M 3.40625 -8.34375 "/>
</g>
<g id="glyph-5-36">
<path d="M 0.875 -8.34375 L 1.734375 -8.34375 C 2.273438 -7.5 2.675781 -6.671875 2.9375 -5.859375 C 3.207031 -5.054688 3.34375 -4.253906 3.34375 -3.453125 C 3.34375 -2.648438 3.207031 -1.84375 2.9375 -1.03125 C 2.675781 -0.21875 2.273438 0.609375 1.734375 1.453125 L 0.875 1.453125 C 1.351562 0.628906 1.707031 -0.1875 1.9375 -1 C 2.175781 -1.8125 2.296875 -2.628906 2.296875 -3.453125 C 2.296875 -4.273438 2.175781 -5.085938 1.9375 -5.890625 C 1.707031 -6.703125 1.351562 -7.519531 0.875 -8.34375 Z M 0.875 -8.34375 "/>
</g>
<g id="glyph-5-37">
<path d="M 1.359375 -0.90625 L 3.140625 -0.90625 L 3.140625 -7.03125 L 1.203125 -6.640625 L 1.203125 -7.625 L 3.125 -8.015625 L 4.21875 -8.015625 L 4.21875 -0.90625 L 5.984375 -0.90625 L 5.984375 0 L 1.359375 0 Z M 1.359375 -0.90625 "/>
</g>
</g>
</defs>
<rect x="-66" y="-17.6" width="792" height="211.2" fill="rgb(100%, 100%, 100%)" fill-opacity="1"/>
<path fill="none" stroke-width="1.6" stroke-linecap="butt" stroke-linejoin="miter" stroke="rgb(20%, 20%, 20%)" stroke-opacity="1" stroke-miterlimit="10" d="M 70 52 L 92.398438 52 "/>
<path fill="none" stroke-width="1.6" stroke-linecap="butt" stroke-linejoin="miter" stroke="rgb(20%, 20%, 20%)" stroke-opacity="1" stroke-miterlimit="10" d="M 187.601562 52 L 210 52 "/>
<path fill="none" stroke-width="2" stroke-linecap="butt" stroke-linejoin="miter" stroke="rgb(18.039216%, 42.745098%, 64.313725%)" stroke-opacity="1" stroke-miterlimit="10" d="M 92.398438 52 L 98.351562 41 L 110.25 63 L 122.148438 41 L 134.050781 63 L 145.949219 41 L 157.851562 63 L 169.75 41 L 181.648438 63 L 187.601562 52 "/>
<g fill="rgb(10.196078%, 10.196078%, 10.196078%)" fill-opacity="1">
<use xlink:href="#glyph-0-0" x="135.5605" y="26"/>
</g>
<path fill-rule="nonzero" fill="rgb(85.098039%, 50.980392%, 16.862745%)" fill-opacity="0.13" d="M 299.761719 41 L 380.402344 41 L 380.402344 63 L 299.761719 63 Z M 299.761719 41 "/>
<path fill="none" stroke-width="1.6" stroke-linecap="butt" stroke-linejoin="miter" stroke="rgb(20%, 20%, 20%)" stroke-opacity="1" stroke-miterlimit="10" d="M 260 52 L 330 52 "/>
<path fill="none" stroke-width="1.6" stroke-linecap="butt" stroke-linejoin="miter" stroke="rgb(20%, 20%, 20%)" stroke-opacity="1" stroke-miterlimit="10" d="M 380.398438 52 L 400 52 "/>
<path fill="none" stroke-width="2" stroke-linecap="butt" stroke-linejoin="miter" stroke="rgb(85.098039%, 50.980392%, 16.862745%)" stroke-opacity="1" stroke-miterlimit="10" d="M 299.761719 41 L 380.398438 41 L 380.398438 63 L 299.761719 63 "/>
<path fill="none" stroke-width="3.4" stroke-linecap="butt" stroke-linejoin="miter" stroke="rgb(85.098039%, 50.980392%, 16.862745%)" stroke-opacity="1" stroke-miterlimit="10" d="M 330 42.5 L 330 61.5 "/>
<g fill="rgb(10.196078%, 10.196078%, 10.196078%)" fill-opacity="1">
<use xlink:href="#glyph-1-0" x="326.9645" y="26"/>
</g>
<path fill="none" stroke-width="1.6" stroke-linecap="butt" stroke-linejoin="miter" stroke="rgb(20%, 20%, 20%)" stroke-opacity="1" stroke-miterlimit="10" d="M 450 52 L 478 52 "/>
<path fill="none" stroke-width="1.6" stroke-linecap="butt" stroke-linejoin="miter" stroke="rgb(20%, 20%, 20%)" stroke-opacity="1" stroke-miterlimit="10" d="M 562 52 L 590 52 "/>
<path fill-rule="nonzero" fill="rgb(48.235294%, 30.588235%, 63.921569%)" fill-opacity="0.1" stroke-width="2" stroke-linecap="butt" stroke-linejoin="miter" stroke="rgb(48.235294%, 30.588235%, 63.921569%)" stroke-opacity="1" stroke-miterlimit="10" d="M 478 41 L 562 41 L 562 63 L 478 63 Z M 478 41 "/>
<path fill="none" stroke-width="1.6" stroke-linecap="butt" stroke-linejoin="miter" stroke="rgb(48.235294%, 30.588235%, 63.921569%)" stroke-opacity="1" stroke-miterlimit="10" d="M 478 63 L 480.152344 59.476562 L 482.308594 58.019531 L 484.460938 56.898438 L 486.617188 55.953125 L 488.769531 55.121094 L 490.921875 54.371094 L 493.078125 53.679688 L 495.230469 53.035156 L 497.382812 52.429688 L 499.539062 51.859375 L 501.691406 51.316406 L 503.847656 50.796875 L 506 50.296875 L 508.152344 49.820312 L 510.308594 49.355469 L 512.460938 48.910156 L 514.617188 48.476562 L 516.769531 48.054688 L 518.921875 47.644531 L 521.078125 47.246094 L 523.230469 46.855469 L 525.382812 46.476562 L 527.539062 46.105469 L 529.691406 45.742188 L 531.847656 45.386719 L 534 45.035156 L 536.152344 44.695312 L 538.308594 44.359375 L 540.460938 44.027344 L 542.617188 43.703125 L 546.921875 43.070312 L 549.078125 42.761719 L 551.230469 42.457031 L 553.382812 42.160156 L 555.539062 41.863281 L 557.691406 41.570312 L 559.847656 41.285156 L 562 41 "/>
<g fill="rgb(10.196078%, 10.196078%, 10.196078%)" fill-opacity="1">
<use xlink:href="#glyph-2-0" x="493.3945" y="47.6"/>
</g>
<g fill="rgb(10.196078%, 10.196078%, 10.196078%)" fill-opacity="1">
<use xlink:href="#glyph-0-1" x="515.7165" y="26"/>
</g>
<g fill="rgb(10.196078%, 10.196078%, 10.196078%)" fill-opacity="1">
<use xlink:href="#glyph-3-0" x="115.154001" y="98"/>
</g>
<g fill="rgb(10.196078%, 10.196078%, 10.196078%)" fill-opacity="1">
<use xlink:href="#glyph-3-1" x="121.826001" y="98"/>
</g>
<g fill="rgb(10.196078%, 10.196078%, 10.196078%)" fill-opacity="1">
<use xlink:href="#glyph-3-2" x="128.498001" y="98"/>
</g>
<g fill="rgb(10.196078%, 10.196078%, 10.196078%)" fill-opacity="1">
<use xlink:href="#glyph-3-3" x="133.202" y="98"/>
</g>
<g fill="rgb(10.196078%, 10.196078%, 10.196078%)" fill-opacity="1">
<use xlink:href="#glyph-3-4" x="136.538" y="98"/>
</g>
<g fill="rgb(10.196078%, 10.196078%, 10.196078%)" fill-opacity="1">
<use xlink:href="#glyph-3-5" x="143.209999" y="98"/>
</g>
<g fill="rgb(10.196078%, 10.196078%, 10.196078%)" fill-opacity="1">
<use xlink:href="#glyph-3-6" x="149.209999" y="98"/>
</g>
<g fill="rgb(10.196078%, 10.196078%, 10.196078%)" fill-opacity="1">
<use xlink:href="#glyph-4-0" x="153.133997" y="98"/>
</g>
<g fill="rgb(10.196078%, 10.196078%, 10.196078%)" fill-opacity="1">
<use xlink:href="#glyph-3-7" x="162.073999" y="98"/>
</g>
<g fill="rgb(10.196078%, 10.196078%, 10.196078%)" fill-opacity="1">
<use xlink:href="#glyph-3-8" x="301.518001" y="98"/>
</g>
<g fill="rgb(10.196078%, 10.196078%, 10.196078%)" fill-opacity="1">
<use xlink:href="#glyph-3-9" x="310.686001" y="98"/>
</g>
<g fill="rgb(10.196078%, 10.196078%, 10.196078%)" fill-opacity="1">
<use xlink:href="#glyph-3-10" x="316.686" y="98"/>
</g>
<g fill="rgb(10.196078%, 10.196078%, 10.196078%)" fill-opacity="1">
<use xlink:href="#glyph-3-11" x="321.414001" y="98"/>
</g>
<g fill="rgb(10.196078%, 10.196078%, 10.196078%)" fill-opacity="1">
<use xlink:href="#glyph-3-1" x="328.086001" y="98"/>
</g>
<g fill="rgb(10.196078%, 10.196078%, 10.196078%)" fill-opacity="1">
<use xlink:href="#glyph-3-12" x="334.758001" y="98"/>
</g>
<g fill="rgb(10.196078%, 10.196078%, 10.196078%)" fill-opacity="1">
<use xlink:href="#glyph-3-13" x="340.758001" y="98"/>
</g>
<g fill="rgb(10.196078%, 10.196078%, 10.196078%)" fill-opacity="1">
<use xlink:href="#glyph-3-6" x="345.426" y="98"/>
</g>
<g fill="rgb(10.196078%, 10.196078%, 10.196078%)" fill-opacity="1">
<use xlink:href="#glyph-3-14" x="349.746002" y="98"/>
</g>
<g fill="rgb(10.196078%, 10.196078%, 10.196078%)" fill-opacity="1">
<use xlink:href="#glyph-3-7" x="355.709999" y="98"/>
</g>
<g fill="rgb(10.196078%, 10.196078%, 10.196078%)" fill-opacity="1">
<use xlink:href="#glyph-3-0" x="479.847582" y="98"/>
</g>
<g fill="rgb(10.196078%, 10.196078%, 10.196078%)" fill-opacity="1">
<use xlink:href="#glyph-3-15" x="486.519582" y="98"/>
</g>
<g fill="rgb(10.196078%, 10.196078%, 10.196078%)" fill-opacity="1">
<use xlink:href="#glyph-3-12" x="491.847582" y="98"/>
</g>
<g fill="rgb(10.196078%, 10.196078%, 10.196078%)" fill-opacity="1">
<use xlink:href="#glyph-3-13" x="497.847582" y="98"/>
</g>
<g fill="rgb(10.196078%, 10.196078%, 10.196078%)" fill-opacity="1">
<use xlink:href="#glyph-3-13" x="502.515582" y="98"/>
</g>
<g fill="rgb(10.196078%, 10.196078%, 10.196078%)" fill-opacity="1">
<use xlink:href="#glyph-3-16" x="507.183581" y="98"/>
</g>
<g fill="rgb(10.196078%, 10.196078%, 10.196078%)" fill-opacity="1">
<use xlink:href="#glyph-3-17" x="515.67958" y="98"/>
</g>
<g fill="rgb(10.196078%, 10.196078%, 10.196078%)" fill-opacity="1">
<use xlink:href="#glyph-3-9" x="519.015579" y="98"/>
</g>
<g fill="rgb(10.196078%, 10.196078%, 10.196078%)" fill-opacity="1">
<use xlink:href="#glyph-3-3" x="525.015579" y="98"/>
</g>
<g fill="rgb(10.196078%, 10.196078%, 10.196078%)" fill-opacity="1">
<use xlink:href="#glyph-3-2" x="528.35158" y="98"/>
</g>
<g fill="rgb(10.196078%, 10.196078%, 10.196078%)" fill-opacity="1">
<use xlink:href="#glyph-3-6" x="533.055583" y="98"/>
</g>
<g fill="rgb(10.196078%, 10.196078%, 10.196078%)" fill-opacity="1">
<use xlink:href="#glyph-4-1" x="535.21558" y="98"/>
</g>
<g fill="rgb(10.196078%, 10.196078%, 10.196078%)" fill-opacity="1">
<use xlink:href="#glyph-3-18" x="544.364377" y="98"/>
</g>
<g fill="rgb(10.196078%, 10.196078%, 10.196078%)" fill-opacity="1">
<use xlink:href="#glyph-3-19" x="549.700413" y="98"/>
</g>
<g fill="rgb(10.196078%, 10.196078%, 10.196078%)" fill-opacity="1">
<use xlink:href="#glyph-3-7" x="557.380417" y="98"/>
</g>
<g fill="rgb(33.333333%, 33.333333%, 33.333333%)" fill-opacity="1">
<use xlink:href="#glyph-5-0" x="92.431152" y="132"/>
<use xlink:href="#glyph-5-1" x="99.19873" y="132"/>
<use xlink:href="#glyph-5-2" x="102.254883" y="132"/>
<use xlink:href="#glyph-5-3" x="108.995605" y="132"/>
<use xlink:href="#glyph-5-4" x="114.726562" y="132"/>
<use xlink:href="#glyph-5-5" x="119.039551" y="132"/>
<use xlink:href="#glyph-5-6" x="122.095703" y="132"/>
<use xlink:href="#glyph-5-7" x="128.143555" y="132"/>
<use xlink:href="#glyph-5-8" x="131.640137" y="132"/>
<use xlink:href="#glyph-5-7" x="135.136719" y="132"/>
<use xlink:href="#glyph-5-9" x="138.633301" y="132"/>
<use xlink:href="#glyph-5-5" x="145.143066" y="132"/>
<use xlink:href="#glyph-5-3" x="148.199219" y="132"/>
<use xlink:href="#glyph-5-6" x="153.930176" y="132"/>
<use xlink:href="#glyph-5-10" x="159.978027" y="132"/>
<use xlink:href="#glyph-5-11" x="166.708008" y="132"/>
<use xlink:href="#glyph-5-3" x="173.679688" y="132"/>
<use xlink:href="#glyph-5-7" x="179.410645" y="132"/>
<use xlink:href="#glyph-5-8" x="182.907227" y="132"/>
<use xlink:href="#glyph-5-7" x="186.403809" y="132"/>
<use xlink:href="#glyph-5-12" x="189.900391" y="132"/>
<use xlink:href="#glyph-5-2" x="196.882812" y="132"/>
<use xlink:href="#glyph-5-13" x="203.623535" y="132"/>
<use xlink:href="#glyph-5-2" x="208.145996" y="132"/>
<use xlink:href="#glyph-5-14" x="214.886719" y="132"/>
<use xlink:href="#glyph-5-10" x="221.869141" y="132"/>
<use xlink:href="#glyph-5-1" x="228.599121" y="132"/>
<use xlink:href="#glyph-5-5" x="231.655273" y="132"/>
<use xlink:href="#glyph-5-6" x="234.711426" y="132"/>
<use xlink:href="#glyph-5-15" x="240.759277" y="132"/>
<use xlink:href="#glyph-5-7" x="244.255859" y="132"/>
<use xlink:href="#glyph-5-16" x="247.752441" y="132"/>
<use xlink:href="#glyph-5-17" x="254.47168" y="132"/>
<use xlink:href="#glyph-5-0" x="261.443359" y="132"/>
<use xlink:href="#glyph-5-7" x="268.210938" y="132"/>
<use xlink:href="#glyph-5-4" x="271.70752" y="132"/>
<use xlink:href="#glyph-5-17" x="276.020508" y="132"/>
<use xlink:href="#glyph-5-5" x="282.992188" y="132"/>
<use xlink:href="#glyph-5-13" x="286.04834" y="132"/>
<use xlink:href="#glyph-5-18" x="290.570801" y="132"/>
<use xlink:href="#glyph-5-7" x="297.553223" y="132"/>
<use xlink:href="#glyph-5-5" x="301.049805" y="132"/>
<use xlink:href="#glyph-5-3" x="304.105957" y="132"/>
<use xlink:href="#glyph-5-7" x="309.836914" y="132"/>
<use xlink:href="#glyph-5-4" x="313.333496" y="132"/>
<use xlink:href="#glyph-5-17" x="317.646484" y="132"/>
<use xlink:href="#glyph-5-0" x="324.618164" y="132"/>
<use xlink:href="#glyph-5-7" x="331.385742" y="132"/>
<use xlink:href="#glyph-5-3" x="334.882324" y="132"/>
<use xlink:href="#glyph-5-12" x="340.613281" y="132"/>
<use xlink:href="#glyph-5-13" x="347.595703" y="132"/>
<use xlink:href="#glyph-5-5" x="352.118164" y="132"/>
<use xlink:href="#glyph-5-19" x="355.174316" y="132"/>
<use xlink:href="#glyph-5-20" x="362.145996" y="132"/>
<use xlink:href="#glyph-5-12" x="369.128418" y="132"/>
<use xlink:href="#glyph-5-10" x="376.11084" y="132"/>
<use xlink:href="#glyph-5-4" x="382.84082" y="132"/>
<use xlink:href="#glyph-5-21" x="387.153809" y="132"/>
<use xlink:href="#glyph-5-7" x="390.650391" y="132"/>
<use xlink:href="#glyph-5-4" x="394.146973" y="132"/>
<use xlink:href="#glyph-5-17" x="398.459961" y="132"/>
<use xlink:href="#glyph-5-0" x="405.431641" y="132"/>
<use xlink:href="#glyph-5-7" x="412.199219" y="132"/>
<use xlink:href="#glyph-5-22" x="415.695801" y="132"/>
<use xlink:href="#glyph-5-6" x="422.678223" y="132"/>
<use xlink:href="#glyph-5-10" x="428.726074" y="132"/>
<use xlink:href="#glyph-5-4" x="435.456055" y="132"/>
<use xlink:href="#glyph-5-4" x="439.769043" y="132"/>
<use xlink:href="#glyph-5-23" x="444.082031" y="132"/>
<use xlink:href="#glyph-5-24" x="448.05127" y="132"/>
<use xlink:href="#glyph-5-1" x="455.597656" y="132"/>
<use xlink:href="#glyph-5-2" x="458.653809" y="132"/>
<use xlink:href="#glyph-5-5" x="465.394531" y="132"/>
<use xlink:href="#glyph-5-13" x="468.450684" y="132"/>
<use xlink:href="#glyph-5-7" x="472.973145" y="132"/>
<use xlink:href="#glyph-5-0" x="476.469727" y="132"/>
<use xlink:href="#glyph-5-1" x="483.237305" y="132"/>
<use xlink:href="#glyph-5-0" x="486.293457" y="132"/>
<use xlink:href="#glyph-5-25" x="493.061035" y="132"/>
<use xlink:href="#glyph-5-0" x="503.776367" y="132"/>
<use xlink:href="#glyph-5-19" x="510.543945" y="132"/>
<use xlink:href="#glyph-5-4" x="517.515625" y="132"/>
<use xlink:href="#glyph-5-7" x="521.828613" y="132"/>
<use xlink:href="#glyph-5-2" x="525.325195" y="132"/>
<use xlink:href="#glyph-5-19" x="532.065918" y="132"/>
<use xlink:href="#glyph-5-18" x="539.037598" y="132"/>
<use xlink:href="#glyph-5-7" x="546.02002" y="132"/>
<use xlink:href="#glyph-5-4" x="549.516602" y="132"/>
<use xlink:href="#glyph-5-17" x="553.82959" y="132"/>
<use xlink:href="#glyph-5-0" x="560.80127" y="132"/>
</g>
<g fill="rgb(33.333333%, 33.333333%, 33.333333%)" fill-opacity="1">
<use xlink:href="#glyph-5-12" x="60.486572" y="148"/>
<use xlink:href="#glyph-5-2" x="67.468994" y="148"/>
<use xlink:href="#glyph-5-13" x="74.209717" y="148"/>
<use xlink:href="#glyph-5-2" x="78.732178" y="148"/>
<use xlink:href="#glyph-5-14" x="85.4729" y="148"/>
<use xlink:href="#glyph-5-10" x="92.455322" y="148"/>
<use xlink:href="#glyph-5-1" x="99.185303" y="148"/>
<use xlink:href="#glyph-5-5" x="102.241455" y="148"/>
<use xlink:href="#glyph-5-6" x="105.297607" y="148"/>
<use xlink:href="#glyph-5-7" x="111.345459" y="148"/>
<use xlink:href="#glyph-5-0" x="114.842041" y="148"/>
<use xlink:href="#glyph-5-1" x="121.609619" y="148"/>
<use xlink:href="#glyph-5-0" x="124.665771" y="148"/>
<use xlink:href="#glyph-5-25" x="131.43335" y="148"/>
<use xlink:href="#glyph-5-0" x="142.148682" y="148"/>
<use xlink:href="#glyph-5-19" x="148.91626" y="148"/>
<use xlink:href="#glyph-5-4" x="155.887939" y="148"/>
<use xlink:href="#glyph-5-7" x="160.200928" y="148"/>
<use xlink:href="#glyph-5-10" x="163.69751" y="148"/>
<use xlink:href="#glyph-5-26" x="170.42749" y="148"/>
<use xlink:href="#glyph-5-7" x="174.300049" y="148"/>
<use xlink:href="#glyph-5-4" x="177.796631" y="148"/>
<use xlink:href="#glyph-5-17" x="182.109619" y="148"/>
<use xlink:href="#glyph-5-0" x="189.081299" y="148"/>
<use xlink:href="#glyph-5-7" x="195.848877" y="148"/>
<use xlink:href="#glyph-5-14" x="199.345459" y="148"/>
<use xlink:href="#glyph-5-5" x="206.327881" y="148"/>
<use xlink:href="#glyph-5-4" x="209.384033" y="148"/>
<use xlink:href="#glyph-5-11" x="213.697021" y="148"/>
<use xlink:href="#glyph-5-25" x="220.668701" y="148"/>
<use xlink:href="#glyph-5-5" x="231.384033" y="148"/>
<use xlink:href="#glyph-5-19" x="234.440186" y="148"/>
<use xlink:href="#glyph-5-10" x="241.411865" y="148"/>
<use xlink:href="#glyph-5-11" x="248.141846" y="148"/>
<use xlink:href="#glyph-5-3" x="255.113525" y="148"/>
<use xlink:href="#glyph-5-7" x="260.844482" y="148"/>
<use xlink:href="#glyph-5-25" x="264.341064" y="148"/>
<use xlink:href="#glyph-5-10" x="275.056396" y="148"/>
<use xlink:href="#glyph-5-18" x="281.786377" y="148"/>
<use xlink:href="#glyph-5-0" x="288.768799" y="148"/>
<use xlink:href="#glyph-5-1" x="295.536377" y="148"/>
<use xlink:href="#glyph-5-3" x="298.592529" y="148"/>
<use xlink:href="#glyph-5-7" x="304.323486" y="148"/>
<use xlink:href="#glyph-5-27" x="307.820068" y="148"/>
<use xlink:href="#glyph-5-7" x="318.820068" y="148"/>
<use xlink:href="#glyph-5-10" x="322.31665" y="148"/>
<use xlink:href="#glyph-5-19" x="329.046631" y="148"/>
<use xlink:href="#glyph-5-0" x="336.018311" y="148"/>
<use xlink:href="#glyph-5-7" x="342.785889" y="148"/>
<use xlink:href="#glyph-5-10" x="346.282471" y="148"/>
<use xlink:href="#glyph-5-14" x="353.012451" y="148"/>
<use xlink:href="#glyph-5-28" x="359.994873" y="148"/>
<use xlink:href="#glyph-5-0" x="363.051025" y="148"/>
<use xlink:href="#glyph-5-6" x="369.818604" y="148"/>
<use xlink:href="#glyph-5-4" x="375.866455" y="148"/>
<use xlink:href="#glyph-5-7" x="380.179443" y="148"/>
<use xlink:href="#glyph-5-11" x="383.676025" y="148"/>
<use xlink:href="#glyph-5-19" x="390.647705" y="148"/>
<use xlink:href="#glyph-5-18" x="397.619385" y="148"/>
<use xlink:href="#glyph-5-0" x="404.601807" y="148"/>
<use xlink:href="#glyph-5-13" x="411.369385" y="148"/>
<use xlink:href="#glyph-5-7" x="415.891846" y="148"/>
<use xlink:href="#glyph-5-4" x="419.388428" y="148"/>
<use xlink:href="#glyph-5-17" x="423.701416" y="148"/>
<use xlink:href="#glyph-5-13" x="430.673096" y="148"/>
<use xlink:href="#glyph-5-0" x="435.195557" y="148"/>
<use xlink:href="#glyph-5-0" x="441.963135" y="148"/>
<use xlink:href="#glyph-5-7" x="448.730713" y="148"/>
<use xlink:href="#glyph-5-19" x="452.227295" y="148"/>
<use xlink:href="#glyph-5-2" x="459.198975" y="148"/>
<use xlink:href="#glyph-5-25" x="465.939697" y="148"/>
<use xlink:href="#glyph-5-0" x="476.655029" y="148"/>
<use xlink:href="#glyph-5-3" x="483.422607" y="148"/>
<use xlink:href="#glyph-5-15" x="489.153564" y="148"/>
<use xlink:href="#glyph-5-7" x="492.650146" y="148"/>
<use xlink:href="#glyph-5-16" x="496.146729" y="148"/>
<use xlink:href="#glyph-5-17" x="502.865967" y="148"/>
<use xlink:href="#glyph-5-0" x="509.837646" y="148"/>
<use xlink:href="#glyph-5-7" x="516.605225" y="148"/>
<use xlink:href="#glyph-5-2" x="520.101807" y="148"/>
<use xlink:href="#glyph-5-13" x="526.842529" y="148"/>
<use xlink:href="#glyph-5-6" x="531.36499" y="148"/>
<use xlink:href="#glyph-5-7" x="537.412842" y="148"/>
<use xlink:href="#glyph-5-18" x="540.909424" y="148"/>
<use xlink:href="#glyph-5-13" x="547.891846" y="148"/>
<use xlink:href="#glyph-5-2" x="552.414307" y="148"/>
<use xlink:href="#glyph-5-29" x="559.155029" y="148"/>
<use xlink:href="#glyph-5-19" x="568.151611" y="148"/>
<use xlink:href="#glyph-5-7" x="575.123291" y="148"/>
<use xlink:href="#glyph-5-5" x="578.619873" y="148"/>
<use xlink:href="#glyph-5-19" x="581.676025" y="148"/>
<use xlink:href="#glyph-5-7" x="588.647705" y="148"/>
<use xlink:href="#glyph-5-5" x="592.144287" y="148"/>
<use xlink:href="#glyph-5-4" x="595.200439" y="148"/>
</g>
<g fill="rgb(33.333333%, 33.333333%, 33.333333%)" fill-opacity="1">
<use xlink:href="#glyph-5-5" x="88.813721" y="164"/>
<use xlink:href="#glyph-5-3" x="91.869873" y="164"/>
<use xlink:href="#glyph-5-7" x="97.60083" y="164"/>
<use xlink:href="#glyph-5-5" x="101.097412" y="164"/>
<use xlink:href="#glyph-5-4" x="104.153564" y="164"/>
<use xlink:href="#glyph-5-3" x="108.466553" y="164"/>
<use xlink:href="#glyph-5-7" x="114.19751" y="164"/>
<use xlink:href="#glyph-5-6" x="117.694092" y="164"/>
<use xlink:href="#glyph-5-13" x="123.741943" y="164"/>
<use xlink:href="#glyph-5-0" x="128.264404" y="164"/>
<use xlink:href="#glyph-5-0" x="135.031982" y="164"/>
<use xlink:href="#glyph-5-12" x="141.799561" y="164"/>
<use xlink:href="#glyph-5-7" x="148.781982" y="164"/>
<use xlink:href="#glyph-5-26" x="152.278564" y="164"/>
<use xlink:href="#glyph-5-11" x="156.151123" y="164"/>
<use xlink:href="#glyph-5-19" x="163.122803" y="164"/>
<use xlink:href="#glyph-5-6" x="170.094482" y="164"/>
<use xlink:href="#glyph-5-4" x="176.142334" y="164"/>
<use xlink:href="#glyph-5-5" x="180.455322" y="164"/>
<use xlink:href="#glyph-5-10" x="183.511475" y="164"/>
<use xlink:href="#glyph-5-19" x="190.241455" y="164"/>
<use xlink:href="#glyph-5-30" x="197.213135" y="164"/>
<use xlink:href="#glyph-5-7" x="200.919189" y="164"/>
<use xlink:href="#glyph-5-26" x="204.415771" y="164"/>
<use xlink:href="#glyph-5-1" x="208.28833" y="164"/>
<use xlink:href="#glyph-5-2" x="211.344482" y="164"/>
<use xlink:href="#glyph-5-4" x="218.085205" y="164"/>
<use xlink:href="#glyph-5-7" x="222.398193" y="164"/>
<use xlink:href="#glyph-5-10" x="225.894775" y="164"/>
<use xlink:href="#glyph-5-19" x="232.624756" y="164"/>
<use xlink:href="#glyph-5-4" x="239.596436" y="164"/>
<use xlink:href="#glyph-5-10" x="243.909424" y="164"/>
<use xlink:href="#glyph-5-7" x="250.639404" y="164"/>
<use xlink:href="#glyph-5-4" x="254.135986" y="164"/>
<use xlink:href="#glyph-5-17" x="258.448975" y="164"/>
<use xlink:href="#glyph-5-0" x="265.420654" y="164"/>
<use xlink:href="#glyph-5-7" x="272.188232" y="164"/>
<use xlink:href="#glyph-5-2" x="275.684814" y="164"/>
<use xlink:href="#glyph-5-31" x="282.425537" y="164"/>
<use xlink:href="#glyph-5-5" x="288.935303" y="164"/>
<use xlink:href="#glyph-5-3" x="291.991455" y="164"/>
<use xlink:href="#glyph-5-7" x="297.722412" y="164"/>
<use xlink:href="#glyph-5-2" x="301.218994" y="164"/>
<use xlink:href="#glyph-5-4" x="307.959717" y="164"/>
<use xlink:href="#glyph-5-7" x="312.272705" y="164"/>
<use xlink:href="#glyph-5-32" x="315.769287" y="164"/>
<use xlink:href="#glyph-5-7" x="323.020264" y="164"/>
<use xlink:href="#glyph-5-33" x="326.516846" y="164"/>
<use xlink:href="#glyph-5-7" x="335.733643" y="164"/>
<use xlink:href="#glyph-5-34" x="339.230225" y="164"/>
<use xlink:href="#glyph-5-7" x="346.22876" y="164"/>
<use xlink:href="#glyph-5-35" x="349.725342" y="164"/>
<use xlink:href="#glyph-5-2" x="354.016846" y="164"/>
<use xlink:href="#glyph-5-7" x="360.757568" y="164"/>
<use xlink:href="#glyph-5-3" x="364.25415" y="164"/>
<use xlink:href="#glyph-5-12" x="369.985107" y="164"/>
<use xlink:href="#glyph-5-13" x="376.967529" y="164"/>
<use xlink:href="#glyph-5-5" x="381.48999" y="164"/>
<use xlink:href="#glyph-5-19" x="384.546143" y="164"/>
<use xlink:href="#glyph-5-20" x="391.517822" y="164"/>
<use xlink:href="#glyph-5-36" x="398.500244" y="164"/>
<use xlink:href="#glyph-5-21" x="402.791748" y="164"/>
<use xlink:href="#glyph-5-7" x="406.28833" y="164"/>
<use xlink:href="#glyph-5-3" x="409.784912" y="164"/>
<use xlink:href="#glyph-5-4" x="415.515869" y="164"/>
<use xlink:href="#glyph-5-13" x="419.828857" y="164"/>
<use xlink:href="#glyph-5-2" x="424.351318" y="164"/>
<use xlink:href="#glyph-5-5" x="431.092041" y="164"/>
<use xlink:href="#glyph-5-20" x="434.148193" y="164"/>
<use xlink:href="#glyph-5-17" x="441.130615" y="164"/>
<use xlink:href="#glyph-5-4" x="448.102295" y="164"/>
<use xlink:href="#glyph-5-7" x="452.415283" y="164"/>
<use xlink:href="#glyph-5-2" x="455.911865" y="164"/>
<use xlink:href="#glyph-5-4" x="462.652588" y="164"/>
<use xlink:href="#glyph-5-7" x="466.965576" y="164"/>
<use xlink:href="#glyph-5-32" x="470.462158" y="164"/>
<use xlink:href="#glyph-5-7" x="477.713135" y="164"/>
<use xlink:href="#glyph-5-33" x="481.209717" y="164"/>
<use xlink:href="#glyph-5-7" x="490.426514" y="164"/>
<use xlink:href="#glyph-5-37" x="493.923096" y="164"/>
<use xlink:href="#glyph-5-7" x="500.921631" y="164"/>
<use xlink:href="#glyph-5-35" x="504.418213" y="164"/>
<use xlink:href="#glyph-5-2" x="508.709717" y="164"/>
<use xlink:href="#glyph-5-7" x="515.450439" y="164"/>
<use xlink:href="#glyph-5-18" x="518.947021" y="164"/>
<use xlink:href="#glyph-5-2" x="525.929443" y="164"/>
<use xlink:href="#glyph-5-3" x="532.670166" y="164"/>
<use xlink:href="#glyph-5-17" x="538.401123" y="164"/>
<use xlink:href="#glyph-5-12" x="545.372803" y="164"/>
<use xlink:href="#glyph-5-10" x="552.355225" y="164"/>
<use xlink:href="#glyph-5-4" x="559.085205" y="164"/>
<use xlink:href="#glyph-5-36" x="563.398193" y="164"/>
<use xlink:href="#glyph-5-15" x="567.689697" y="164"/>
</g>
</svg>
